<svg width="500" height="500" viewBox="0 0 500 500" fill="none" xmlns="http://www.w3.org/2000/svg">
<rect y="4.92676" width="500" height="490.145" rx="89.5697" fill="black"/>
<path d="M165.399 94.5014C160.803 94.4003 156.289 95.7328 152.485 98.3157C148.681 100.899 145.777 104.604 144.176 108.914C142.574 113.224 142.356 117.925 143.55 122.365C144.744 126.805 147.292 130.76 150.84 133.685L286.194 249.641L150.84 365.557C148.386 367.36 146.331 369.65 144.803 372.285C143.276 374.919 142.308 377.842 141.962 380.868C141.616 383.893 141.898 386.957 142.791 389.869C143.685 392.78 145.169 395.477 147.152 397.788C149.135 400.099 151.574 401.974 154.317 403.299C157.059 404.624 160.045 405.368 163.088 405.486C166.131 405.603 169.166 405.093 172.002 403.983C174.838 402.873 177.414 401.19 179.57 399.038L334.538 266.447C336.972 264.37 338.926 261.793 340.266 258.888C341.606 255.982 342.3 252.82 342.3 249.621C342.3 246.422 341.606 243.26 340.266 240.355C338.926 237.449 336.972 234.869 334.538 232.792L179.57 100.074C175.655 96.5964 170.634 94.6246 165.399 94.5014Z" fill="white"/>
<path d="M334.601 94.5014C339.197 94.4003 343.711 95.7328 347.515 98.3157C351.319 100.899 354.223 104.604 355.824 108.914C357.426 113.224 357.644 117.925 356.45 122.365C355.256 126.805 352.708 130.76 349.16 133.685L213.806 249.641L349.16 365.557C351.614 367.361 353.669 369.65 355.197 372.285C356.724 374.919 357.692 377.842 358.038 380.868C358.384 383.893 358.102 386.957 357.209 389.869C356.315 392.78 354.831 395.477 352.848 397.788C350.865 400.099 348.426 401.974 345.683 403.299C342.941 404.624 339.955 405.368 336.912 405.486C333.869 405.603 330.834 405.093 327.998 403.983C325.162 402.873 322.586 401.19 320.43 399.038L165.462 266.447C163.028 264.37 161.074 261.793 159.734 258.888C158.394 255.982 157.7 252.82 157.7 249.621C157.7 246.422 158.394 243.26 159.734 240.355C161.074 237.449 163.028 234.869 165.462 232.792L320.43 100.074C324.345 96.5964 329.366 94.6246 334.601 94.5014Z" fill="#17B3D5"/>
</svg>
