<svg width="4700" height="1000" viewBox="0 0 4700 1000" fill="none" xmlns="http://www.w3.org/2000/svg">
<rect width="1020.1" height="1000" rx="182.741" fill="black"/>
<path d="M337.449 182.752C328.071 182.546 318.862 185.264 311.101 190.534C303.341 195.804 297.416 203.364 294.149 212.157C290.882 220.95 290.435 230.541 292.872 239.599C295.309 248.657 300.507 256.728 307.745 262.695L583.897 499.27L307.745 735.763C302.738 739.442 298.545 744.114 295.429 749.489C292.312 754.864 290.339 760.826 289.633 766.999C288.926 773.173 289.502 779.424 291.324 785.364C293.146 791.304 296.175 796.806 300.221 801.521C304.267 806.236 309.244 810.061 314.838 812.764C320.433 815.468 326.525 816.986 332.734 817.225C338.942 817.465 345.134 816.423 350.92 814.159C356.706 811.895 361.962 808.461 366.36 804.072L682.529 533.558C687.494 529.321 691.481 524.061 694.214 518.134C696.948 512.207 698.364 505.756 698.364 499.229C698.364 492.702 696.948 486.25 694.214 480.323C691.481 474.396 687.494 469.132 682.529 464.895L366.36 194.12C358.373 187.026 348.129 183.003 337.449 182.752Z" fill="white"/>
<path d="M682.655 182.752C692.033 182.546 701.242 185.264 709.003 190.534C716.763 195.804 722.688 203.364 725.955 212.157C729.222 220.95 729.669 230.541 727.232 239.599C724.795 248.657 719.597 256.728 712.359 262.695L436.207 499.27L712.359 735.763C717.366 739.442 721.559 744.114 724.675 749.489C727.792 754.864 729.765 760.826 730.471 766.999C731.178 773.172 730.602 779.424 728.78 785.364C726.958 791.304 723.929 796.806 719.883 801.521C715.837 806.236 710.86 810.061 705.266 812.764C699.671 815.468 693.579 816.986 687.37 817.225C681.162 817.465 674.97 816.423 669.184 814.159C663.398 811.895 658.142 808.461 653.744 804.072L337.575 533.558C332.61 529.321 328.623 524.061 325.89 518.134C323.156 512.207 321.74 505.756 321.74 499.229C321.74 492.702 323.156 486.25 325.89 480.323C328.623 474.396 332.61 469.132 337.575 464.895L653.744 194.12C661.731 187.026 671.975 183.003 682.655 182.752Z" fill="#17B3D5"/>
<path d="M1198.48 377.297V311.702H1507.53V377.297H1392.32V688H1313.68V377.297H1198.48ZM1556.95 688V405.777H1635.23V688H1556.95ZM1596.27 369.396C1584.64 369.396 1574.65 365.538 1566.32 357.821C1558.12 349.981 1554.01 340.61 1554.01 329.709C1554.01 318.929 1558.12 309.681 1566.32 301.964C1574.65 294.124 1584.64 290.205 1596.27 290.205C1607.91 290.205 1617.83 294.124 1626.04 301.964C1634.37 309.681 1638.53 318.929 1638.53 329.709C1638.53 340.61 1634.37 349.981 1626.04 357.821C1617.83 365.538 1607.91 369.396 1596.27 369.396ZM1697.93 688V405.777H1772.53V455.57H1775.83C1781.71 439.033 1791.51 425.988 1805.23 416.433C1818.95 406.879 1835.36 402.102 1854.47 402.102C1873.83 402.102 1890.3 406.94 1903.9 416.617C1917.5 426.172 1926.56 439.156 1931.09 455.57H1934.03C1939.79 439.401 1950.2 426.478 1965.27 416.801C1980.46 407.002 1998.4 402.102 2019.1 402.102C2045.44 402.102 2066.81 410.493 2083.23 427.274C2099.76 443.933 2108.03 467.574 2108.03 498.197V688H2029.94V513.631C2029.94 497.952 2025.78 486.193 2017.45 478.354C2009.12 470.514 1998.71 466.594 1986.21 466.594C1972 466.594 1960.92 471.126 1952.96 480.191C1945 489.133 1941.01 500.953 1941.01 515.653V688H1865.13V511.978C1865.13 498.136 1861.15 487.112 1853.19 478.905C1845.35 470.698 1835 466.594 1822.13 466.594C1813.44 466.594 1805.6 468.799 1798.62 473.209C1791.76 477.496 1786.31 483.56 1782.26 491.399C1778.22 499.116 1776.2 508.181 1776.2 518.592V688H1697.93ZM2298.48 693.512C2269.45 693.512 2244.46 687.633 2223.51 675.873C2202.69 663.991 2186.64 647.21 2175.37 625.529C2164.1 603.725 2158.47 577.94 2158.47 548.174C2158.47 519.144 2164.1 493.665 2175.37 471.739C2186.64 449.813 2202.51 432.725 2222.96 420.476C2243.54 408.226 2267.67 402.102 2295.36 402.102C2313.97 402.102 2331.31 405.103 2347.35 411.105C2363.52 416.985 2377.61 425.865 2389.61 437.747C2401.74 449.629 2411.17 464.573 2417.91 482.58C2424.65 500.464 2428.01 521.41 2428.01 545.418V566.916H2189.7V518.409H2354.34C2354.34 507.139 2351.89 497.156 2346.99 488.459C2342.09 479.762 2335.29 472.964 2326.59 468.064C2318.02 463.042 2308.03 460.531 2296.64 460.531C2284.76 460.531 2274.23 463.287 2265.04 468.799C2255.97 474.189 2248.87 481.477 2243.72 490.664C2238.58 499.729 2235.95 509.834 2235.82 520.981V567.1C2235.82 581.064 2238.4 593.129 2243.54 603.296C2248.81 613.463 2256.22 621.303 2265.77 626.815C2275.33 632.327 2286.66 635.083 2299.76 635.083C2308.46 635.083 2316.42 633.858 2323.65 631.408C2330.88 628.958 2337.06 625.284 2342.21 620.384C2347.35 615.484 2351.27 609.482 2353.97 602.378L2426.36 607.155C2422.69 624.549 2415.15 639.738 2403.76 652.722C2392.49 665.584 2377.92 675.628 2360.03 682.855C2342.27 689.96 2321.75 693.512 2298.48 693.512ZM2550.02 606.787L2550.2 512.897H2561.59L2651.99 405.777H2741.84L2620.39 547.623H2601.83L2550.02 606.787ZM2479.09 688V311.702H2557.37V688H2479.09ZM2655.48 688L2572.43 565.078L2624.62 509.773L2747.17 688H2655.48ZM2897.24 693.512C2868.21 693.512 2843.22 687.633 2822.27 675.873C2801.45 663.991 2785.4 647.21 2774.13 625.529C2762.86 603.725 2757.23 577.94 2757.23 548.174C2757.23 519.144 2762.86 493.665 2774.13 471.739C2785.4 449.813 2801.27 432.725 2821.72 420.476C2842.3 408.226 2866.43 402.102 2894.12 402.102C2912.73 402.102 2930.07 405.103 2946.11 411.105C2962.28 416.985 2976.37 425.865 2988.37 437.747C3000.5 449.629 3009.93 464.573 3016.67 482.58C3023.41 500.464 3026.77 521.41 3026.77 545.418V566.916H2788.47V518.409H2953.1C2953.1 507.139 2950.65 497.156 2945.75 488.459C2940.85 479.762 2934.05 472.964 2925.35 468.064C2916.78 463.042 2906.79 460.531 2895.4 460.531C2883.52 460.531 2872.99 463.287 2863.8 468.799C2854.73 474.189 2847.63 481.477 2842.48 490.664C2837.34 499.729 2834.71 509.834 2834.58 520.981V567.1C2834.58 581.064 2837.16 593.129 2842.3 603.296C2847.57 613.463 2854.98 621.303 2864.53 626.815C2874.09 632.327 2885.42 635.083 2898.52 635.083C2907.22 635.083 2915.18 633.858 2922.41 631.408C2929.64 628.958 2935.82 625.284 2940.97 620.384C2946.11 615.484 2950.03 609.482 2952.73 602.378L3025.12 607.155C3021.45 624.549 3013.91 639.738 3002.52 652.722C2991.25 665.584 2976.68 675.628 2958.79 682.855C2941.03 689.96 2920.51 693.512 2897.24 693.512ZM3206.47 693.512C3177.44 693.512 3152.45 687.633 3131.51 675.873C3110.68 663.991 3094.64 647.21 3083.37 625.529C3072.1 603.725 3066.46 577.94 3066.46 548.174C3066.46 519.144 3072.1 493.665 3083.37 471.739C3094.64 449.813 3110.5 432.725 3130.96 420.476C3151.53 408.226 3175.66 402.102 3203.35 402.102C3221.97 402.102 3239.3 405.103 3255.35 411.105C3271.52 416.985 3285.6 425.865 3297.61 437.747C3309.73 449.629 3319.17 464.573 3325.9 482.58C3332.64 500.464 3336.01 521.41 3336.01 545.418V566.916H3097.7V518.409H3262.33C3262.33 507.139 3259.88 497.156 3254.98 488.459C3250.08 479.762 3243.28 472.964 3234.58 468.064C3226.01 463.042 3216.03 460.531 3204.63 460.531C3192.75 460.531 3182.22 463.287 3173.03 468.799C3163.97 474.189 3156.86 481.477 3151.72 490.664C3146.57 499.729 3143.94 509.834 3143.82 520.981V567.1C3143.82 581.064 3146.39 593.129 3151.53 603.296C3156.8 613.463 3164.21 621.303 3173.77 626.815C3183.32 632.327 3194.65 635.083 3207.76 635.083C3216.46 635.083 3224.42 633.858 3231.64 631.408C3238.87 628.958 3245.06 625.284 3250.2 620.384C3255.35 615.484 3259.27 609.482 3261.96 602.378L3334.35 607.155C3330.68 624.549 3323.15 639.738 3311.75 652.722C3300.49 665.584 3285.91 675.628 3268.02 682.855C3250.26 689.96 3229.75 693.512 3206.47 693.512ZM3387.09 793.834V405.777H3464.26V453.181H3467.75C3471.18 445.587 3476.14 437.87 3482.63 430.03C3489.25 422.068 3497.82 415.454 3508.36 410.186C3519.01 404.797 3532.24 402.102 3548.04 402.102C3568.62 402.102 3587.61 407.491 3605 418.271C3622.4 428.928 3636.3 445.036 3646.71 466.594C3657.12 488.03 3662.33 514.918 3662.33 547.256C3662.33 578.736 3657.25 605.317 3647.08 626.999C3637.03 648.557 3623.31 664.91 3605.92 676.057C3588.65 687.081 3569.3 692.593 3547.86 692.593C3532.67 692.593 3519.75 690.082 3509.09 685.06C3498.56 680.038 3489.92 673.73 3483.18 666.135C3476.45 658.418 3471.3 650.64 3467.75 642.8H3465.36V793.834H3387.09ZM3463.71 546.888C3463.71 563.67 3466.03 578.308 3470.69 590.802C3475.34 603.296 3482.08 613.034 3490.9 620.016C3499.72 626.876 3510.44 630.306 3523.05 630.306C3535.79 630.306 3546.57 626.815 3555.39 619.833C3564.21 612.728 3570.89 602.929 3575.42 590.434C3580.07 577.818 3582.4 563.302 3582.4 546.888C3582.4 530.597 3580.14 516.265 3575.6 503.893C3571.07 491.522 3564.4 481.845 3555.58 474.863C3546.76 467.88 3535.92 464.389 3523.05 464.389C3510.32 464.389 3499.54 467.758 3490.72 474.495C3482.02 481.232 3475.34 490.787 3470.69 503.158C3466.03 515.53 3463.71 530.107 3463.71 546.888ZM3843.13 693.512C3814.1 693.512 3789.11 687.633 3768.16 675.873C3747.34 663.991 3731.29 647.21 3720.02 625.529C3708.75 603.725 3703.12 577.94 3703.12 548.174C3703.12 519.144 3708.75 493.665 3720.02 471.739C3731.29 449.813 3747.16 432.725 3767.61 420.476C3788.19 408.226 3812.32 402.102 3840 402.102C3858.62 402.102 3875.96 405.103 3892 411.105C3908.17 416.985 3922.26 425.865 3934.26 437.747C3946.39 449.629 3955.82 464.573 3962.56 482.58C3969.3 500.464 3972.66 521.41 3972.66 545.418V566.916H3734.35V518.409H3898.98C3898.98 507.139 3896.54 497.156 3891.64 488.459C3886.74 479.762 3879.94 472.964 3871.24 468.064C3862.67 463.042 3852.68 460.531 3841.29 460.531C3829.41 460.531 3818.87 463.287 3809.69 468.799C3800.62 474.189 3793.52 481.477 3788.37 490.664C3783.23 499.729 3780.6 509.834 3780.47 520.981V567.1C3780.47 581.064 3783.05 593.129 3788.19 603.296C3793.46 613.463 3800.87 621.303 3810.42 626.815C3819.98 632.327 3831.31 635.083 3844.41 635.083C3853.11 635.083 3861.07 633.858 3868.3 631.408C3875.53 628.958 3881.71 625.284 3886.86 620.384C3892 615.484 3895.92 609.482 3898.62 602.378L3971.01 607.155C3967.34 624.549 3959.8 639.738 3948.41 652.722C3937.14 665.584 3922.56 675.628 3904.68 682.855C3886.92 689.96 3866.4 693.512 3843.13 693.512ZM4023.74 688V405.777H4099.63V455.019H4102.57C4107.71 437.502 4116.35 424.273 4128.48 415.331C4140.6 406.267 4154.57 401.734 4170.37 401.734C4174.29 401.734 4178.51 401.979 4183.05 402.469C4187.58 402.959 4191.56 403.633 4194.99 404.49V473.944C4191.31 472.841 4186.23 471.861 4179.74 471.004C4173.25 470.147 4167.31 469.718 4161.92 469.718C4150.4 469.718 4140.11 472.229 4131.05 477.251C4122.11 482.151 4115 489.01 4109.73 497.83C4104.59 506.649 4102.02 516.816 4102.02 528.331V688H4023.74Z" fill="black"/>
<path d="M4311.53 311.702L4387.41 439.952H4390.35L4466.6 311.702H4556.45L4441.61 499.851L4559.02 688H4467.52L4390.35 559.566H4387.41L4310.24 688H4219.1L4336.88 499.851L4221.31 311.702H4311.53Z" fill="#17B3D5"/>
</svg>
