<svg width="101" height="101" viewBox="0 0 101 101" fill="none" xmlns="http://www.w3.org/2000/svg">
<rect x="0.5" y="1.37695" width="100" height="98.0292" rx="17.914" fill="black"/>
<path d="M33.5798 19.2921C32.6605 19.2719 31.7577 19.5384 30.997 20.0549C30.2363 20.5715 29.6554 21.3126 29.3351 22.1746C29.0149 23.0366 28.9711 23.9768 29.21 24.8648C29.4489 25.7527 29.9585 26.5439 30.668 27.1288L57.7389 50.3201L30.668 73.5032C30.1772 73.8639 29.7661 74.3219 29.4606 74.8488C29.1551 75.3757 28.9617 75.9602 28.8924 76.5654C28.8232 77.1705 28.8797 77.7833 29.0583 78.3656C29.2369 78.9479 29.5338 79.4872 29.9305 79.9495C30.3271 80.4117 30.8149 80.7867 31.3633 81.0517C31.9117 81.3166 32.509 81.4655 33.1176 81.489C33.7262 81.5124 34.3332 81.4104 34.9004 81.1884C35.4676 80.9665 35.9829 80.6298 36.4139 80.1995L67.4077 53.6813C67.8944 53.2659 68.2853 52.7504 68.5533 52.1693C68.8213 51.5883 68.96 50.9559 68.96 50.316C68.96 49.6762 68.8213 49.0438 68.5533 48.4627C68.2853 47.8817 67.8944 47.3656 67.4077 46.9503L36.4139 20.4065C35.631 19.7111 34.6267 19.3167 33.5798 19.2921Z" fill="white"/>
<path d="M67.4202 19.2921C68.3395 19.2719 69.2423 19.5384 70.003 20.0549C70.7637 20.5715 71.3446 21.3126 71.6649 22.1746C71.9851 23.0366 72.0289 23.9768 71.79 24.8648C71.5511 25.7527 71.0415 26.5439 70.332 27.1288L43.2611 50.3201L70.332 73.5032C70.8228 73.8639 71.2339 74.3219 71.5394 74.8488C71.8449 75.3757 72.0383 75.9602 72.1076 76.5654C72.1768 77.1705 72.1203 77.7833 71.9417 78.3656C71.7631 78.9479 71.4662 79.4872 71.0695 79.9495C70.6729 80.4117 70.1851 80.7867 69.6367 81.0517C69.0883 81.3166 68.491 81.4655 67.8824 81.489C67.2738 81.5124 66.6668 81.4104 66.0996 81.1884C65.5324 80.9665 65.0171 80.6298 64.5861 80.1995L33.5923 53.6813C33.1056 53.2659 32.7147 52.7504 32.4467 52.1693C32.1787 51.5883 32.04 50.9559 32.04 50.316C32.04 49.6762 32.1787 49.0438 32.4467 48.4627C32.7147 47.8817 33.1056 47.3656 33.5923 46.9503L64.5861 20.4065C65.369 19.7111 66.3733 19.3167 67.4202 19.2921Z" fill="#17B3D5"/>
</svg>
