<svg width="1000" height="1000" viewBox="0 0 1000 1000" fill="none" xmlns="http://www.w3.org/2000/svg">
<rect y="9.85449" width="1000" height="980.291" rx="179.139" fill="black"/>
<path d="M330.798 189.005C321.605 188.803 312.577 191.468 304.97 196.633C297.362 201.799 291.554 209.21 288.351 217.83C285.148 226.45 284.711 235.852 287.1 244.731C289.488 253.611 294.584 261.522 301.679 267.372L572.388 499.285L301.679 731.116C296.771 734.723 292.661 739.302 289.606 744.572C286.551 749.841 284.616 755.686 283.924 761.737C283.232 767.789 283.796 773.916 285.582 779.739C287.369 785.563 290.338 790.956 294.304 795.578C298.27 800.201 303.148 803.95 308.633 806.6C314.117 809.25 320.089 810.738 326.176 810.973C332.262 811.208 338.331 810.187 344.003 807.968C349.675 805.748 354.828 802.382 359.139 798.079L669.076 532.896C673.943 528.743 677.852 523.587 680.532 517.777C683.212 511.967 684.6 505.643 684.6 499.244C684.6 492.845 683.212 486.521 680.532 480.711C677.852 474.901 673.943 469.74 669.076 465.587L359.139 200.149C351.309 193.195 341.267 189.251 330.798 189.005Z" fill="white"/>
<path d="M669.201 189.005C678.394 188.803 687.422 191.468 695.029 196.633C702.637 201.799 708.445 209.21 711.648 217.83C714.851 226.45 715.288 235.852 712.899 244.731C710.511 253.611 705.415 261.522 698.32 267.372L427.611 499.285L698.32 731.116C703.228 734.723 707.338 739.302 710.393 744.572C713.448 749.841 715.383 755.686 716.075 761.737C716.767 767.789 716.203 773.916 714.417 779.739C712.631 785.563 709.661 790.956 705.695 795.578C701.729 800.201 696.851 803.95 691.366 806.6C685.882 809.25 679.91 810.738 673.823 810.973C667.737 811.208 661.668 810.187 655.996 807.968C650.324 805.748 645.171 802.382 640.86 798.079L330.923 532.896C326.056 528.743 322.147 523.587 319.467 517.777C316.787 511.967 315.399 505.643 315.399 499.244C315.399 492.845 316.787 486.521 319.467 480.711C322.147 474.901 326.056 469.74 330.923 465.587L640.86 200.149C648.69 193.195 658.732 189.251 669.201 189.005Z" fill="#17B3D5"/>
</svg>
