<svg width="471" height="101" viewBox="0 0 471 101" fill="none" xmlns="http://www.w3.org/2000/svg">
<rect x="0.452148" y="0.577148" width="102.01" height="100" rx="18.2741" fill="black"/>
<path d="M34.1971 18.8527C33.2593 18.832 32.3384 19.1039 31.5624 19.6308C30.7863 20.1578 30.1938 20.9138 29.8671 21.7931C29.5404 22.6724 29.4958 23.6315 29.7394 24.5374C29.9831 25.4432 30.5029 26.2502 31.2267 26.8469L58.8419 50.5045L31.2267 74.1537C30.726 74.5217 30.3067 74.9888 29.9951 75.5263C29.6834 76.0638 29.4861 76.6601 29.4155 77.2774C29.3449 77.8947 29.4025 78.5198 29.5847 79.1138C29.7669 79.7078 30.0698 80.258 30.4744 80.7295C30.879 81.2011 31.3766 81.5836 31.936 81.8539C32.4955 82.1242 33.1047 82.276 33.7256 82.3C34.3465 82.3239 34.9656 82.2198 35.5442 81.9934C36.1228 81.767 36.6485 81.4236 37.0882 80.9846L68.7051 53.9332C69.2016 53.5095 69.6003 52.9836 69.8737 52.3909C70.1471 51.7982 70.2886 51.153 70.2886 50.5003C70.2886 49.8476 70.1471 49.2025 69.8737 48.6098C69.6003 48.017 69.2016 47.4906 68.7051 47.0669L37.0882 19.9895C36.2895 19.2801 35.2651 18.8778 34.1971 18.8527Z" fill="white"/>
<path d="M68.7179 18.8527C69.6557 18.832 70.5767 19.1039 71.3527 19.6308C72.1287 20.1578 72.7213 20.9138 73.048 21.7931C73.3747 22.6724 73.4193 23.6315 73.1756 24.5374C72.9319 25.4432 72.4121 26.2502 71.6884 26.8469L44.0732 50.5045L71.6884 74.1537C72.189 74.5217 72.6083 74.9888 72.92 75.5263C73.2316 76.0638 73.4289 76.6601 73.4996 77.2774C73.5702 77.8947 73.5126 78.5198 73.3304 79.1138C73.1482 79.7078 72.8453 80.258 72.4407 80.7295C72.0361 81.2011 71.5385 81.5836 70.979 81.8539C70.4196 82.1242 69.8103 82.276 69.1894 82.3C68.5686 82.3239 67.9494 82.2198 67.3708 81.9934C66.7922 81.767 66.2666 81.4235 65.8268 80.9846L34.21 53.9332C33.7135 53.5095 33.3148 52.9836 33.0414 52.3909C32.768 51.7982 32.6264 51.153 32.6264 50.5003C32.6264 49.8476 32.768 49.2025 33.0414 48.6098C33.3148 48.017 33.7135 47.4906 34.21 47.0669L65.8268 19.9895C66.6255 19.2801 67.65 18.8778 68.7179 18.8527Z" fill="#17B3D5"/>
<path d="M120.3 38.5068V31.9474H151.205V38.5068H139.684V69.5771H131.82V38.5068H120.3ZM156.147 69.5771V41.3548H163.975V69.5771H156.147ZM160.079 37.7168C158.916 37.7168 157.917 37.3309 157.084 36.5592C156.264 35.7753 155.853 34.8382 155.853 33.748C155.853 32.6701 156.264 31.7452 157.084 30.9735C157.917 30.1896 158.916 29.7976 160.079 29.7976C161.243 29.7976 162.235 30.1896 163.056 30.9735C163.889 31.7452 164.305 32.6701 164.305 33.748C164.305 34.8382 163.889 35.7753 163.056 36.5592C162.235 37.3309 161.243 37.7168 160.079 37.7168ZM170.245 69.5771V41.3548H177.705V46.3341H178.035C178.623 44.6805 179.603 43.3759 180.975 42.4205C182.347 41.465 183.988 40.9873 185.899 40.9873C187.835 40.9873 189.482 41.4712 190.842 42.4389C192.202 43.3943 193.108 44.6927 193.561 46.3341H193.855C194.431 44.7172 195.472 43.4249 196.979 42.4572C198.498 41.4773 200.292 40.9873 202.362 40.9873C204.996 40.9873 207.133 41.8264 208.775 43.5046C210.428 45.1705 211.255 47.5346 211.255 50.5969V69.5771H203.446V52.1403C203.446 50.5724 203.03 49.3965 202.197 48.6125C201.364 47.8285 200.323 47.4366 199.073 47.4366C197.652 47.4366 196.544 47.8898 195.748 48.7962C194.952 49.6904 194.553 50.8725 194.553 52.3424V69.5771H186.965V51.9749C186.965 50.5908 186.567 49.4883 185.771 48.6676C184.987 47.8469 183.952 47.4366 182.665 47.4366C181.796 47.4366 181.012 47.6571 180.314 48.098C179.628 48.5268 179.083 49.1331 178.678 49.9171C178.274 50.6888 178.072 51.5952 178.072 52.6364V69.5771H170.245ZM230.3 70.1284C227.397 70.1284 224.898 69.5404 222.803 68.3645C220.721 67.1763 219.116 65.4981 217.989 63.33C216.862 61.1496 216.299 58.5712 216.299 55.5946C216.299 52.6915 216.862 50.1437 217.989 47.951C219.116 45.7584 220.703 44.0496 222.748 42.8247C224.806 41.5998 227.219 40.9873 229.988 40.9873C231.849 40.9873 233.583 41.2874 235.187 41.8876C236.804 42.4756 238.213 43.3637 239.413 44.5519C240.626 45.74 241.569 47.2345 242.243 49.0351C242.917 50.8235 243.253 52.9181 243.253 55.319V57.4687H219.423V52.618H235.886C235.886 51.4911 235.641 50.4928 235.151 49.6231C234.661 48.7534 233.981 48.0735 233.111 47.5836C232.254 47.0813 231.255 46.8302 230.116 46.8302C228.928 46.8302 227.875 47.1058 226.956 47.6571C226.049 48.196 225.339 48.9249 224.824 49.8436C224.31 50.75 224.047 51.7606 224.034 52.8753V57.4871C224.034 58.8835 224.292 60.0901 224.806 61.1068C225.333 62.1235 226.074 62.9074 227.029 63.4586C227.985 64.0098 229.118 64.2855 230.428 64.2855C231.298 64.2855 232.094 64.163 232.817 63.918C233.54 63.673 234.158 63.3055 234.673 62.8155C235.187 62.3256 235.579 61.7254 235.849 61.0149L243.088 61.4926C242.721 63.232 241.967 64.7509 240.828 66.0494C239.701 67.3355 238.244 68.34 236.455 69.0627C234.679 69.7731 232.627 70.1284 230.3 70.1284ZM255.454 61.4559L255.472 52.0668H256.611L265.651 41.3548H274.636L262.491 55.5395H260.635L255.454 61.4559ZM248.361 69.5771V31.9474H256.189V69.5771H248.361ZM266 69.5771L257.695 57.285L262.914 51.7544L275.169 69.5771H266ZM290.176 70.1284C287.273 70.1284 284.774 69.5404 282.679 68.3645C280.597 67.1763 278.992 65.4981 277.865 63.33C276.738 61.1496 276.175 58.5712 276.175 55.5946C276.175 52.6915 276.738 50.1437 277.865 47.951C278.992 45.7584 280.579 44.0496 282.624 42.8247C284.682 41.5998 287.095 40.9873 289.864 40.9873C291.725 40.9873 293.459 41.2874 295.063 41.8876C296.68 42.4756 298.089 43.3637 299.289 44.5519C300.502 45.74 301.445 47.2345 302.119 49.0351C302.793 50.8235 303.13 52.9181 303.13 55.319V57.4687H279.299V52.618H295.762C295.762 51.4911 295.517 50.4928 295.027 49.6231C294.537 48.7534 293.857 48.0735 292.987 47.5836C292.13 47.0813 291.131 46.8302 289.992 46.8302C288.804 46.8302 287.751 47.1058 286.832 47.6571C285.925 48.196 285.215 48.9249 284.7 49.8436C284.186 50.75 283.923 51.7606 283.91 52.8753V57.4871C283.91 58.8835 284.168 60.0901 284.682 61.1068C285.209 62.1235 285.95 62.9074 286.905 63.4586C287.861 64.0098 288.994 64.2855 290.305 64.2855C291.174 64.2855 291.97 64.163 292.693 63.918C293.416 63.673 294.034 63.3055 294.549 62.8155C295.063 62.3256 295.455 61.7254 295.725 61.0149L302.964 61.4926C302.597 63.232 301.843 64.7509 300.704 66.0494C299.577 67.3355 298.12 68.34 296.331 69.0627C294.555 69.7731 292.503 70.1284 290.176 70.1284ZM321.099 70.1284C318.196 70.1284 315.697 69.5404 313.603 68.3645C311.52 67.1763 309.916 65.4981 308.789 63.33C307.662 61.1496 307.098 58.5712 307.098 55.5946C307.098 52.6915 307.662 50.1437 308.789 47.951C309.916 45.7584 311.502 44.0496 313.548 42.8247C315.605 41.5998 318.019 40.9873 320.787 40.9873C322.649 40.9873 324.382 41.2874 325.987 41.8876C327.604 42.4756 329.012 43.3637 330.213 44.5519C331.425 45.74 332.369 47.2345 333.042 49.0351C333.716 50.8235 334.053 52.9181 334.053 55.319V57.4687H310.222V52.618H326.685C326.685 51.4911 326.44 50.4928 325.95 49.6231C325.46 48.7534 324.78 48.0735 323.91 47.5836C323.053 47.0813 322.055 46.8302 320.915 46.8302C319.727 46.8302 318.674 47.1058 317.755 47.6571C316.849 48.196 316.138 48.9249 315.624 49.8436C315.109 50.75 314.846 51.7606 314.834 52.8753V57.4871C314.834 58.8835 315.091 60.0901 315.605 61.1068C316.132 62.1235 316.873 62.9074 317.829 63.4586C318.784 64.0098 319.917 64.2855 321.228 64.2855C322.098 64.2855 322.894 64.163 323.616 63.918C324.339 63.673 324.958 63.3055 325.472 62.8155C325.987 62.3256 326.379 61.7254 326.648 61.0149L333.887 61.4926C333.52 63.232 332.767 64.7509 331.627 66.0494C330.501 67.3355 329.043 68.34 327.254 69.0627C325.478 69.7731 323.427 70.1284 321.099 70.1284ZM339.161 80.1605V41.3548H346.878V46.0953H347.227C347.57 45.3358 348.066 44.5641 348.715 43.7802C349.377 42.984 350.234 42.3225 351.288 41.7958C352.353 41.2568 353.676 40.9873 355.256 40.9873C357.314 40.9873 359.213 41.5263 360.952 42.6042C362.692 43.6699 364.082 45.2807 365.123 47.4366C366.164 49.5802 366.685 52.2689 366.685 55.5027C366.685 58.6508 366.177 61.3089 365.16 63.477C364.155 65.6329 362.784 67.2682 361.044 68.3828C359.317 69.4853 357.382 70.0365 355.238 70.0365C353.719 70.0365 352.427 69.7854 351.361 69.2832C350.308 68.7809 349.444 68.1501 348.77 67.3907C348.097 66.6189 347.582 65.8411 347.227 65.0572H346.988V80.1605H339.161ZM346.823 55.466C346.823 57.1441 347.055 58.6079 347.521 59.8573C347.986 61.1068 348.66 62.0806 349.542 62.7788C350.424 63.4648 351.496 63.8077 352.757 63.8077C354.031 63.8077 355.109 63.4586 355.991 62.7604C356.873 62.05 357.541 61.07 357.994 59.8206C358.46 58.5589 358.692 57.1074 358.692 55.466C358.692 53.8368 358.466 52.4037 358.012 51.1665C357.559 49.9293 356.892 48.9616 356.01 48.2634C355.128 47.5652 354.044 47.2161 352.757 47.2161C351.484 47.2161 350.406 47.5529 349.524 48.2267C348.654 48.9004 347.986 49.8558 347.521 51.093C347.055 52.3302 346.823 53.7878 346.823 55.466ZM384.765 70.1284C381.862 70.1284 379.363 69.5404 377.268 68.3645C375.186 67.1763 373.581 65.4981 372.454 63.33C371.327 61.1496 370.764 58.5712 370.764 55.5946C370.764 52.6915 371.327 50.1437 372.454 47.951C373.581 45.7584 375.168 44.0496 377.213 42.8247C379.271 41.5998 381.684 40.9873 384.452 40.9873C386.314 40.9873 388.048 41.2874 389.652 41.8876C391.269 42.4756 392.678 43.3637 393.878 44.5519C395.091 45.74 396.034 47.2345 396.708 49.0351C397.382 50.8235 397.718 52.9181 397.718 55.319V57.4687H373.887V52.618H390.351C390.351 51.4911 390.106 50.4928 389.616 49.6231C389.126 48.7534 388.446 48.0735 387.576 47.5836C386.719 47.0813 385.72 46.8302 384.581 46.8302C383.393 46.8302 382.339 47.1058 381.421 47.6571C380.514 48.196 379.804 48.9249 379.289 49.8436C378.775 50.75 378.512 51.7606 378.499 52.8753V57.4871C378.499 58.8835 378.757 60.0901 379.271 61.1068C379.798 62.1235 380.539 62.9074 381.494 63.4586C382.45 64.0098 383.583 64.2855 384.893 64.2855C385.763 64.2855 386.559 64.163 387.282 63.918C388.005 63.673 388.623 63.3055 389.138 62.8155C389.652 62.3256 390.044 61.7254 390.314 61.0149L397.553 61.4926C397.186 63.232 396.432 64.7509 395.293 66.0494C394.166 67.3355 392.708 68.34 390.92 69.0627C389.144 69.7731 387.092 70.1284 384.765 70.1284ZM402.826 69.5771V41.3548H410.415V46.279H410.709C411.223 44.5274 412.087 43.2044 413.3 42.3102C414.512 41.4038 415.909 40.9506 417.489 40.9506C417.881 40.9506 418.303 40.9751 418.757 41.0241C419.21 41.0731 419.608 41.1404 419.951 41.2262V48.1715C419.583 48.0613 419.075 47.9633 418.426 47.8775C417.777 47.7918 417.183 47.7489 416.644 47.7489C415.492 47.7489 414.463 48 413.557 48.5023C412.663 48.9922 411.952 49.6782 411.425 50.5601C410.911 51.4421 410.654 52.4588 410.654 53.6102V69.5771H402.826Z" fill="black"/>
<path d="M431.605 31.9474L439.193 44.7724H439.487L447.112 31.9474H456.097L444.613 50.7623L456.354 69.5771H447.204L439.487 56.7338H439.193L431.476 69.5771H422.362L434.14 50.7623L422.583 31.9474H431.605Z" fill="#17B3D5"/>
</svg>
