<svg width="2350" height="500" viewBox="0 0 2350 500" fill="none" xmlns="http://www.w3.org/2000/svg">
<rect width="510.052" height="500" rx="91.3706" fill="black"/>
<path d="M168.724 91.3756C164.035 91.2724 159.431 92.6317 155.551 95.2665C151.67 97.9013 148.708 101.681 147.074 106.078C145.441 110.474 145.218 115.27 146.436 119.799C147.654 124.328 150.253 128.363 153.872 131.347L291.948 249.635L153.872 367.881C151.369 369.721 149.272 372.056 147.714 374.744C146.156 377.431 145.169 380.413 144.816 383.499C144.463 386.586 144.751 389.711 145.662 392.681C146.573 395.651 148.088 398.402 150.111 400.76C152.134 403.118 154.622 405.03 157.419 406.382C160.216 407.733 163.262 408.492 166.367 408.612C169.471 408.732 172.567 408.211 175.46 407.079C178.353 405.947 180.981 404.23 183.18 402.035L341.264 266.778C343.747 264.66 345.74 262.03 347.107 259.067C348.474 256.103 349.182 252.878 349.182 249.614C349.182 246.35 348.474 243.125 347.107 240.161C345.74 237.198 343.747 234.565 341.264 232.447L183.18 97.0598C179.186 93.5127 174.064 91.5012 168.724 91.3756Z" fill="white"/>
<path d="M341.327 91.3756C346.016 91.2724 350.621 92.6317 354.501 95.2665C358.381 97.9013 361.344 101.681 362.978 106.078C364.611 110.474 364.834 115.27 363.616 119.799C362.398 124.328 359.798 128.363 356.18 131.347L218.104 249.635L356.18 367.881C358.683 369.721 360.779 372.056 362.338 374.744C363.896 377.432 364.882 380.413 365.236 383.499C365.589 386.586 365.301 389.711 364.39 392.681C363.479 395.651 361.964 398.402 359.941 400.76C357.918 403.118 355.43 405.03 352.633 406.382C349.836 407.733 346.789 408.492 343.685 408.612C340.581 408.732 337.485 408.211 334.592 407.079C331.699 405.947 329.071 404.23 326.872 402.035L168.788 266.778C166.305 264.66 164.312 262.03 162.945 259.067C161.578 256.103 160.87 252.878 160.87 249.614C160.87 246.35 161.578 243.125 162.945 240.161C164.312 237.198 166.305 234.565 168.788 232.447L326.872 97.0598C330.865 93.5127 335.988 91.5012 341.327 91.3756Z" fill="#17B3D5"/>
<path d="M599.239 188.648V155.851H753.764V188.648H696.162V344H656.841V188.648H599.239ZM778.477 344V202.888H817.613V344H778.477ZM798.137 184.698C792.318 184.698 787.327 182.769 783.162 178.91C779.059 174.991 777.007 170.305 777.007 164.854C777.007 159.465 779.059 154.84 783.162 150.982C787.327 147.062 792.318 145.102 798.137 145.102C803.955 145.102 808.916 147.062 813.02 150.982C817.185 154.84 819.267 159.465 819.267 164.854C819.267 170.305 817.185 174.991 813.02 178.91C808.916 182.769 803.955 184.698 798.137 184.698ZM848.964 344V202.888H886.263V227.785H887.916C890.856 219.517 895.756 212.994 902.616 208.217C909.475 203.44 917.682 201.051 927.237 201.051C936.914 201.051 945.151 203.47 951.95 208.309C958.748 213.086 963.28 219.578 965.546 227.785H967.016C969.895 219.7 975.101 213.239 982.634 208.4C990.229 203.501 999.201 201.051 1009.55 201.051C1022.72 201.051 1033.41 205.246 1041.61 213.637C1049.88 221.967 1054.02 233.787 1054.02 249.099V344H1014.97V256.816C1014.97 248.976 1012.89 243.097 1008.72 239.177C1004.56 235.257 999.354 233.297 993.107 233.297C986.003 233.297 980.46 235.563 976.479 240.095C972.498 244.566 970.507 250.477 970.507 257.826V344H932.565V255.989C932.565 249.068 930.575 243.556 926.594 239.452C922.674 235.349 917.498 233.297 911.068 233.297C906.719 233.297 902.799 234.4 899.308 236.604C895.878 238.748 893.153 241.78 891.132 245.7C889.111 249.558 888.1 254.09 888.1 259.296V344H848.964ZM1149.24 346.756C1134.72 346.756 1122.23 343.816 1111.76 337.937C1101.34 331.996 1093.32 323.605 1087.69 312.764C1082.05 301.862 1079.23 288.97 1079.23 274.087C1079.23 259.572 1082.05 246.833 1087.69 235.869C1093.32 224.906 1101.25 216.362 1111.48 210.238C1121.77 204.113 1133.84 201.051 1147.68 201.051C1156.99 201.051 1165.65 202.551 1173.68 205.553C1181.76 208.492 1188.8 212.933 1194.81 218.874C1200.87 224.815 1205.59 232.287 1208.95 241.29C1212.32 250.232 1214.01 260.705 1214.01 272.709V283.458H1094.85V259.204H1177.17C1177.17 253.57 1175.94 248.578 1173.49 244.23C1171.04 239.881 1167.64 236.482 1163.3 234.032C1159.01 231.521 1154.02 230.265 1148.32 230.265C1142.38 230.265 1137.11 231.643 1132.52 234.4C1127.99 237.094 1124.43 240.739 1121.86 245.332C1119.29 249.864 1117.97 254.917 1117.91 260.491V283.55C1117.91 290.532 1119.2 296.565 1121.77 301.648C1124.4 306.732 1128.11 310.651 1132.89 313.407C1137.66 316.164 1143.33 317.542 1149.88 317.542C1154.23 317.542 1158.21 316.929 1161.83 315.704C1165.44 314.479 1168.53 312.642 1171.1 310.192C1173.68 307.742 1175.64 304.741 1176.98 301.189L1213.18 303.577C1211.34 312.274 1207.58 319.869 1201.88 326.361C1196.25 332.792 1188.96 337.814 1180.02 341.428C1171.14 344.98 1160.88 346.756 1149.24 346.756ZM1275.01 303.394L1275.1 256.448H1280.8L1326 202.888H1370.92L1310.2 273.812H1300.92L1275.01 303.394ZM1239.55 344V155.851H1278.68V344H1239.55ZM1327.74 344L1286.22 282.539L1312.31 254.886L1373.59 344H1327.74ZM1448.62 346.756C1434.1 346.756 1421.61 343.816 1411.14 337.937C1400.72 331.996 1392.7 323.605 1387.07 312.764C1381.43 301.862 1378.61 288.97 1378.61 274.087C1378.61 259.572 1381.43 246.833 1387.07 235.869C1392.7 224.906 1400.63 216.362 1410.86 210.238C1421.15 204.113 1433.22 201.051 1447.06 201.051C1456.37 201.051 1465.03 202.551 1473.06 205.553C1481.14 208.492 1488.18 212.933 1494.19 218.874C1500.25 224.815 1504.97 232.287 1508.33 241.29C1511.7 250.232 1513.39 260.705 1513.39 272.709V283.458H1394.23V259.204H1476.55C1476.55 253.57 1475.32 248.578 1472.87 244.23C1470.42 239.881 1467.02 236.482 1462.68 234.032C1458.39 231.521 1453.4 230.265 1447.7 230.265C1441.76 230.265 1436.49 231.643 1431.9 234.4C1427.37 237.094 1423.81 240.739 1421.24 245.332C1418.67 249.864 1417.35 254.917 1417.29 260.491V283.55C1417.29 290.532 1418.58 296.565 1421.15 301.648C1423.78 306.732 1427.49 310.651 1432.27 313.407C1437.04 316.164 1442.71 317.542 1449.26 317.542C1453.61 317.542 1457.59 316.929 1461.21 315.704C1464.82 314.479 1467.91 312.642 1470.48 310.192C1473.06 307.742 1475.02 304.741 1476.36 301.189L1512.56 303.577C1510.72 312.274 1506.96 319.869 1501.26 326.361C1495.63 332.792 1488.34 337.814 1479.4 341.428C1470.52 344.98 1460.26 346.756 1448.62 346.756ZM1603.24 346.756C1588.72 346.756 1576.23 343.816 1565.75 337.937C1555.34 331.996 1547.32 323.605 1541.68 312.764C1536.05 301.862 1533.23 288.97 1533.23 274.087C1533.23 259.572 1536.05 246.833 1541.68 235.869C1547.32 224.906 1555.25 216.362 1565.48 210.238C1575.77 204.113 1587.83 201.051 1601.67 201.051C1610.98 201.051 1619.65 202.551 1627.67 205.553C1635.76 208.492 1642.8 212.933 1648.8 218.874C1654.87 224.815 1659.58 232.287 1662.95 241.29C1666.32 250.232 1668 260.705 1668 272.709V283.458H1548.85V259.204H1631.16C1631.16 253.57 1629.94 248.578 1627.49 244.23C1625.04 239.881 1621.64 236.482 1617.29 234.032C1613 231.521 1608.01 230.265 1602.32 230.265C1596.38 230.265 1591.11 231.643 1586.52 234.4C1581.98 237.094 1578.43 240.739 1575.86 245.332C1573.29 249.864 1571.97 254.917 1571.91 260.491V283.55C1571.91 290.532 1573.19 296.565 1575.77 301.648C1578.4 306.732 1582.11 310.651 1586.88 313.407C1591.66 316.164 1597.33 317.542 1603.88 317.542C1608.23 317.542 1612.21 316.929 1615.82 315.704C1619.44 314.479 1622.53 312.642 1625.1 310.192C1627.67 307.742 1629.63 304.741 1630.98 301.189L1667.18 303.577C1665.34 312.274 1661.57 319.869 1655.88 326.361C1650.24 332.792 1642.95 337.814 1634.01 341.428C1625.13 344.98 1614.87 346.756 1603.24 346.756ZM1693.54 396.917V202.888H1732.13V226.591H1733.87C1735.59 222.793 1738.07 218.935 1741.32 215.015C1744.62 211.034 1748.91 207.727 1754.18 205.093C1759.51 202.398 1766.12 201.051 1774.02 201.051C1784.31 201.051 1793.8 203.746 1802.5 209.135C1811.2 214.464 1818.15 222.518 1823.36 233.297C1828.56 244.015 1831.16 257.459 1831.16 273.628C1831.16 289.368 1828.62 302.659 1823.54 313.499C1818.52 324.279 1811.66 332.455 1802.96 338.028C1794.32 343.541 1784.65 346.297 1773.93 346.297C1766.34 346.297 1759.87 345.041 1754.55 342.53C1749.28 340.019 1744.96 336.865 1741.59 333.068C1738.22 329.209 1735.65 325.32 1733.87 321.4H1732.68V396.917H1693.54ZM1731.85 273.444C1731.85 281.835 1733.02 289.154 1735.34 295.401C1737.67 301.648 1741.04 306.517 1745.45 310.008C1749.86 313.438 1755.22 315.153 1761.53 315.153C1767.9 315.153 1773.29 313.407 1777.7 309.916C1782.11 306.364 1785.44 301.464 1787.71 295.217C1790.04 288.909 1791.2 281.651 1791.2 273.444C1791.2 265.298 1790.07 258.133 1787.8 251.947C1785.54 245.761 1782.2 240.922 1777.79 237.431C1773.38 233.94 1767.96 232.195 1761.53 232.195C1755.16 232.195 1749.77 233.879 1745.36 237.248C1741.01 240.616 1737.67 245.393 1735.34 251.579C1733.02 257.765 1731.85 265.053 1731.85 273.444ZM1921.56 346.756C1907.05 346.756 1894.55 343.816 1884.08 337.937C1873.67 331.996 1865.65 323.605 1860.01 312.764C1854.38 301.862 1851.56 288.97 1851.56 274.087C1851.56 259.572 1854.38 246.833 1860.01 235.869C1865.65 224.906 1873.58 216.362 1883.81 210.238C1894.1 204.113 1906.16 201.051 1920 201.051C1929.31 201.051 1937.98 202.551 1946 205.553C1954.09 208.492 1961.13 212.933 1967.13 218.874C1973.2 224.815 1977.91 232.287 1981.28 241.29C1984.65 250.232 1986.33 260.705 1986.33 272.709V283.458H1867.18V259.204H1949.49C1949.49 253.57 1948.27 248.578 1945.82 244.23C1943.37 239.881 1939.97 236.482 1935.62 234.032C1931.33 231.521 1926.34 230.265 1920.65 230.265C1914.7 230.265 1909.44 231.643 1904.84 234.4C1900.31 237.094 1896.76 240.739 1894.19 245.332C1891.61 249.864 1890.3 254.917 1890.24 260.491V283.55C1890.24 290.532 1891.52 296.565 1894.1 301.648C1896.73 306.732 1900.43 310.651 1905.21 313.407C1909.99 316.164 1915.65 317.542 1922.21 317.542C1926.56 317.542 1930.54 316.929 1934.15 315.704C1937.76 314.479 1940.86 312.642 1943.43 310.192C1946 307.742 1947.96 304.741 1949.31 301.189L1985.51 303.577C1983.67 312.274 1979.9 319.869 1974.21 326.361C1968.57 332.792 1961.28 337.814 1952.34 341.428C1943.46 344.98 1933.2 346.756 1921.56 346.756ZM2011.87 344V202.888H2049.81V227.509H2051.28C2053.86 218.751 2058.17 212.136 2064.24 207.666C2070.3 203.133 2077.28 200.867 2085.18 200.867C2087.14 200.867 2089.26 200.99 2091.52 201.235C2093.79 201.48 2095.78 201.816 2097.49 202.245V236.972C2095.66 236.421 2093.12 235.931 2089.87 235.502C2086.62 235.073 2083.65 234.859 2080.96 234.859C2075.2 234.859 2070.06 236.114 2065.52 238.626C2061.05 241.075 2057.5 244.505 2054.87 248.915C2052.29 253.325 2051.01 258.408 2051.01 264.165V344H2011.87Z" fill="black"/>
<path d="M2155.76 155.851L2193.71 219.976H2195.17L2233.3 155.851H2278.23L2220.81 249.926L2279.51 344H2233.76L2195.17 279.783H2193.71L2155.12 344H2109.55L2168.44 249.926L2110.65 155.851H2155.76Z" fill="#17B3D5"/>
</svg>
