<svg width="501" height="500" viewBox="0 0 501 500" fill="none" xmlns="http://www.w3.org/2000/svg">
<rect x="0.5" y="4.92676" width="500" height="490.145" rx="89.5697" fill="white"/>
<path d="M165.899 94.5014C161.303 94.4003 156.789 95.7328 152.985 98.3157C149.181 100.899 146.277 104.604 144.676 108.914C143.074 113.224 142.856 117.925 144.05 122.365C145.244 126.805 147.792 130.76 151.34 133.685L286.694 249.641L151.34 365.557C148.886 367.36 146.831 369.65 145.303 372.285C143.776 374.919 142.808 377.842 142.462 380.868C142.116 383.893 142.398 386.957 143.291 389.869C144.185 392.78 145.669 395.477 147.652 397.788C149.635 400.099 152.074 401.974 154.817 403.299C157.559 404.624 160.545 405.368 163.588 405.486C166.631 405.603 169.666 405.093 172.502 403.983C175.338 402.873 177.914 401.19 180.07 399.038L335.038 266.447C337.472 264.37 339.426 261.793 340.766 258.888C342.106 255.982 342.8 252.82 342.8 249.621C342.8 246.422 342.106 243.26 340.766 240.355C339.426 237.449 337.472 234.869 335.038 232.792L180.07 100.074C176.155 96.5964 171.134 94.6246 165.899 94.5014Z" fill="black"/>
<path d="M335.101 94.5014C339.697 94.4003 344.211 95.7328 348.015 98.3157C351.819 100.899 354.723 104.604 356.324 108.914C357.926 113.224 358.144 117.925 356.95 122.365C355.756 126.805 353.208 130.76 349.66 133.685L214.306 249.641L349.66 365.557C352.114 367.361 354.169 369.65 355.697 372.285C357.224 374.919 358.192 377.842 358.538 380.868C358.884 383.893 358.602 386.957 357.709 389.869C356.815 392.78 355.331 395.477 353.348 397.788C351.365 400.099 348.926 401.974 346.183 403.299C343.441 404.624 340.455 405.368 337.412 405.486C334.369 405.603 331.334 405.093 328.498 403.983C325.662 402.873 323.086 401.19 320.93 399.038L165.962 266.447C163.528 264.37 161.574 261.793 160.234 258.888C158.894 255.982 158.2 252.82 158.2 249.621C158.2 246.422 158.894 243.26 160.234 240.355C161.574 237.449 163.528 234.869 165.962 232.792L320.93 100.074C324.845 96.5964 329.866 94.6246 335.101 94.5014Z" fill="#17B3D5"/>
</svg>
