<svg width="470" height="101" viewBox="0 0 470 101" fill="none" xmlns="http://www.w3.org/2000/svg">
<rect y="0.577148" width="102.01" height="100" rx="18.2741" fill="white"/>
<path d="M33.745 18.8527C32.8072 18.832 31.8862 19.1039 31.1102 19.6308C30.3342 20.1578 29.7416 20.9138 29.4149 21.7931C29.0882 22.6724 29.0436 23.6315 29.2873 24.5374C29.5309 25.4432 30.0508 26.2502 30.7745 26.8469L58.3897 50.5045L30.7745 74.1537C30.2739 74.5217 29.8546 74.9888 29.5429 75.5263C29.2313 76.0638 29.034 76.6601 28.9633 77.2774C28.8927 77.8947 28.9503 78.5198 29.1325 79.1138C29.3147 79.7078 29.6176 80.258 30.0222 80.7295C30.4268 81.2011 30.9244 81.5836 31.4839 81.8539C32.0433 82.1242 32.6526 82.276 33.2734 82.3C33.8943 82.3239 34.5134 82.2198 35.0921 81.9934C35.6707 81.767 36.1963 81.4236 36.636 80.9846L68.2529 53.9332C68.7494 53.5095 69.1481 52.9836 69.4215 52.3909C69.6949 51.7982 69.8365 51.153 69.8365 50.5003C69.8365 49.8476 69.6949 49.2025 69.4215 48.6098C69.1481 48.017 68.7494 47.4906 68.2529 47.0669L36.636 19.9895C35.8374 19.2801 34.8129 18.8778 33.745 18.8527Z" fill="black"/>
<path d="M68.2658 18.8527C69.2036 18.832 70.1245 19.1039 70.9005 19.6308C71.6766 20.1578 72.2691 20.9138 72.5958 21.7931C72.9225 22.6724 72.9671 23.6315 72.7235 24.5374C72.4798 25.4432 71.96 26.2502 71.2362 26.8469L43.621 50.5045L71.2362 74.1537C71.7369 74.5217 72.1561 74.9888 72.4678 75.5263C72.7795 76.0638 72.9768 76.6601 73.0474 77.2774C73.118 77.8947 73.0604 78.5198 72.8782 79.1138C72.696 79.7078 72.3931 80.258 71.9885 80.7295C71.5839 81.2011 71.0863 81.5836 70.5269 81.8539C69.9674 82.1242 69.3582 82.276 68.7373 82.3C68.1164 82.3239 67.4973 82.2198 66.9187 81.9934C66.3401 81.767 65.8144 81.4235 65.3747 80.9846L33.7578 53.9332C33.2613 53.5095 32.8626 52.9836 32.5892 52.3909C32.3158 51.7982 32.1743 51.153 32.1743 50.5003C32.1743 49.8476 32.3158 49.2025 32.5892 48.6098C32.8626 48.017 33.2613 47.4906 33.7578 47.0669L65.3747 19.9895C66.1734 19.2801 67.1978 18.8778 68.2658 18.8527Z" fill="#17B3D5"/>
<path d="M119.848 38.5068V31.9474H150.753V38.5068H139.232V69.5771H131.368V38.5068H119.848ZM155.695 69.5771V41.3548H163.522V69.5771H155.695ZM159.627 37.7168C158.464 37.7168 157.465 37.3309 156.632 36.5592C155.812 35.7753 155.401 34.8382 155.401 33.748C155.401 32.6701 155.812 31.7452 156.632 30.9735C157.465 30.1896 158.464 29.7976 159.627 29.7976C160.791 29.7976 161.783 30.1896 162.604 30.9735C163.437 31.7452 163.853 32.6701 163.853 33.748C163.853 34.8382 163.437 35.7753 162.604 36.5592C161.783 37.3309 160.791 37.7168 159.627 37.7168ZM169.793 69.5771V41.3548H177.252V46.3341H177.583C178.171 44.6805 179.151 43.3759 180.523 42.4205C181.895 41.465 183.536 40.9873 185.447 40.9873C187.383 40.9873 189.03 41.4712 190.39 42.4389C191.749 43.3943 192.656 44.6927 193.109 46.3341H193.403C193.979 44.7172 195.02 43.4249 196.527 42.4572C198.046 41.4773 199.84 40.9873 201.91 40.9873C204.544 40.9873 206.681 41.8264 208.323 43.5046C209.976 45.1705 210.803 47.5346 210.803 50.5969V69.5771H202.994V52.1403C202.994 50.5724 202.578 49.3965 201.745 48.6125C200.912 47.8285 199.871 47.4366 198.621 47.4366C197.2 47.4366 196.092 47.8898 195.296 48.7962C194.499 49.6904 194.101 50.8725 194.101 52.3424V69.5771H186.513V51.9749C186.513 50.5908 186.115 49.4883 185.319 48.6676C184.535 47.8469 183.5 47.4366 182.213 47.4366C181.344 47.4366 180.56 47.6571 179.861 48.098C179.176 48.5268 178.63 49.1331 178.226 49.9171C177.822 50.6888 177.62 51.5952 177.62 52.6364V69.5771H169.793ZM229.848 70.1284C226.945 70.1284 224.446 69.5404 222.351 68.3645C220.269 67.1763 218.664 65.4981 217.537 63.33C216.41 61.1496 215.847 58.5712 215.847 55.5946C215.847 52.6915 216.41 50.1437 217.537 47.951C218.664 45.7584 220.25 44.0496 222.296 42.8247C224.354 41.5998 226.767 40.9873 229.535 40.9873C231.397 40.9873 233.131 41.2874 234.735 41.8876C236.352 42.4756 237.761 43.3637 238.961 44.5519C240.174 45.74 241.117 47.2345 241.791 49.0351C242.464 50.8235 242.801 52.9181 242.801 55.319V57.4687H218.97V52.618H235.433C235.433 51.4911 235.188 50.4928 234.698 49.6231C234.208 48.7534 233.529 48.0735 232.659 47.5836C231.801 47.0813 230.803 46.8302 229.664 46.8302C228.476 46.8302 227.422 47.1058 226.504 47.6571C225.597 48.196 224.887 48.9249 224.372 49.8436C223.858 50.75 223.594 51.7606 223.582 52.8753V57.4871C223.582 58.8835 223.839 60.0901 224.354 61.1068C224.881 62.1235 225.622 62.9074 226.577 63.4586C227.533 64.0098 228.666 64.2855 229.976 64.2855C230.846 64.2855 231.642 64.163 232.365 63.918C233.088 63.673 233.706 63.3055 234.221 62.8155C234.735 62.3256 235.127 61.7254 235.397 61.0149L242.636 61.4926C242.268 63.232 241.515 64.7509 240.376 66.0494C239.249 67.3355 237.791 68.34 236.003 69.0627C234.227 69.7731 232.175 70.1284 229.848 70.1284ZM255.002 61.4559L255.02 52.0668H256.159L265.199 41.3548H274.184L262.039 55.5395H260.183L255.002 61.4559ZM247.909 69.5771V31.9474H255.737V69.5771H247.909ZM265.548 69.5771L257.243 57.285L262.461 51.7544L274.717 69.5771H265.548ZM289.724 70.1284C286.821 70.1284 284.322 69.5404 282.227 68.3645C280.145 67.1763 278.54 65.4981 277.413 63.33C276.286 61.1496 275.723 58.5712 275.723 55.5946C275.723 52.6915 276.286 50.1437 277.413 47.951C278.54 45.7584 280.126 44.0496 282.172 42.8247C284.23 41.5998 286.643 40.9873 289.411 40.9873C291.273 40.9873 293.007 41.2874 294.611 41.8876C296.228 42.4756 297.637 43.3637 298.837 44.5519C300.05 45.74 300.993 47.2345 301.667 49.0351C302.341 50.8235 302.677 52.9181 302.677 55.319V57.4687H278.846V52.618H295.309C295.309 51.4911 295.064 50.4928 294.574 49.6231C294.084 48.7534 293.405 48.0735 292.535 47.5836C291.678 47.0813 290.679 46.8302 289.54 46.8302C288.352 46.8302 287.298 47.1058 286.38 47.6571C285.473 48.196 284.763 48.9249 284.248 49.8436C283.734 50.75 283.47 51.7606 283.458 52.8753V57.4871C283.458 58.8835 283.715 60.0901 284.23 61.1068C284.757 62.1235 285.498 62.9074 286.453 63.4586C287.409 64.0098 288.542 64.2855 289.852 64.2855C290.722 64.2855 291.518 64.163 292.241 63.918C292.964 63.673 293.582 63.3055 294.097 62.8155C294.611 62.3256 295.003 61.7254 295.273 61.0149L302.512 61.4926C302.145 63.232 301.391 64.7509 300.252 66.0494C299.125 67.3355 297.667 68.34 295.879 69.0627C294.103 69.7731 292.051 70.1284 289.724 70.1284ZM320.647 70.1284C317.744 70.1284 315.245 69.5404 313.15 68.3645C311.068 67.1763 309.463 65.4981 308.337 63.33C307.21 61.1496 306.646 58.5712 306.646 55.5946C306.646 52.6915 307.21 50.1437 308.337 47.951C309.463 45.7584 311.05 44.0496 313.095 42.8247C315.153 41.5998 317.566 40.9873 320.335 40.9873C322.197 40.9873 323.93 41.2874 325.535 41.8876C327.151 42.4756 328.56 43.3637 329.761 44.5519C330.973 45.74 331.916 47.2345 332.59 49.0351C333.264 50.8235 333.601 52.9181 333.601 55.319V57.4687H309.77V52.618H326.233C326.233 51.4911 325.988 50.4928 325.498 49.6231C325.008 48.7534 324.328 48.0735 323.458 47.5836C322.601 47.0813 321.602 46.8302 320.463 46.8302C319.275 46.8302 318.222 47.1058 317.303 47.6571C316.397 48.196 315.686 48.9249 315.172 49.8436C314.657 50.75 314.394 51.7606 314.382 52.8753V57.4871C314.382 58.8835 314.639 60.0901 315.153 61.1068C315.68 62.1235 316.421 62.9074 317.376 63.4586C318.332 64.0098 319.465 64.2855 320.776 64.2855C321.645 64.2855 322.442 64.163 323.164 63.918C323.887 63.673 324.506 63.3055 325.02 62.8155C325.535 62.3256 325.926 61.7254 326.196 61.0149L333.435 61.4926C333.068 63.232 332.314 64.7509 331.175 66.0494C330.048 67.3355 328.591 68.34 326.802 69.0627C325.026 69.7731 322.974 70.1284 320.647 70.1284ZM338.709 80.1605V41.3548H346.426V46.0953H346.775C347.118 45.3358 347.614 44.5641 348.263 43.7802C348.925 42.984 349.782 42.3225 350.835 41.7958C351.901 41.2568 353.224 40.9873 354.804 40.9873C356.862 40.9873 358.761 41.5263 360.5 42.6042C362.239 43.6699 363.63 45.2807 364.671 47.4366C365.712 49.5802 366.233 52.2689 366.233 55.5027C366.233 58.6508 365.724 61.3089 364.708 63.477C363.703 65.6329 362.331 67.2682 360.592 68.3828C358.865 69.4853 356.929 70.0365 354.786 70.0365C353.267 70.0365 351.975 69.7854 350.909 69.2832C349.855 68.7809 348.992 68.1501 348.318 67.3907C347.644 66.6189 347.13 65.8411 346.775 65.0572H346.536V80.1605H338.709ZM346.371 55.466C346.371 57.1441 346.603 58.6079 347.069 59.8573C347.534 61.1068 348.208 62.0806 349.09 62.7788C349.972 63.4648 351.044 63.8077 352.305 63.8077C353.579 63.8077 354.657 63.4586 355.539 62.7604C356.421 62.05 357.089 61.07 357.542 59.8206C358.007 58.5589 358.24 57.1074 358.24 55.466C358.24 53.8368 358.013 52.4037 357.56 51.1665C357.107 49.9293 356.439 48.9616 355.558 48.2634C354.676 47.5652 353.591 47.2161 352.305 47.2161C351.031 47.2161 349.953 47.5529 349.072 48.2267C348.202 48.9004 347.534 49.8558 347.069 51.093C346.603 52.3302 346.371 53.7878 346.371 55.466ZM384.313 70.1284C381.41 70.1284 378.911 69.5404 376.816 68.3645C374.734 67.1763 373.129 65.4981 372.002 63.33C370.875 61.1496 370.312 58.5712 370.312 55.5946C370.312 52.6915 370.875 50.1437 372.002 47.951C373.129 45.7584 374.715 44.0496 376.761 42.8247C378.819 41.5998 381.232 40.9873 384 40.9873C385.862 40.9873 387.595 41.2874 389.2 41.8876C390.817 42.4756 392.226 43.3637 393.426 44.5519C394.639 45.74 395.582 47.2345 396.256 49.0351C396.929 50.8235 397.266 52.9181 397.266 55.319V57.4687H373.435V52.618H389.898C389.898 51.4911 389.653 50.4928 389.163 49.6231C388.673 48.7534 387.994 48.0735 387.124 47.5836C386.266 47.0813 385.268 46.8302 384.129 46.8302C382.941 46.8302 381.887 47.1058 380.969 47.6571C380.062 48.196 379.352 48.9249 378.837 49.8436C378.323 50.75 378.059 51.7606 378.047 52.8753V57.4871C378.047 58.8835 378.304 60.0901 378.819 61.1068C379.346 62.1235 380.087 62.9074 381.042 63.4586C381.998 64.0098 383.131 64.2855 384.441 64.2855C385.311 64.2855 386.107 64.163 386.83 63.918C387.553 63.673 388.171 63.3055 388.686 62.8155C389.2 62.3256 389.592 61.7254 389.862 61.0149L397.101 61.4926C396.733 63.232 395.98 64.7509 394.841 66.0494C393.714 67.3355 392.256 68.34 390.468 69.0627C388.692 69.7731 386.64 70.1284 384.313 70.1284ZM402.374 69.5771V41.3548H409.963V46.279H410.257C410.771 44.5274 411.635 43.2044 412.847 42.3102C414.06 41.4038 415.456 40.9506 417.037 40.9506C417.429 40.9506 417.851 40.9751 418.304 41.0241C418.758 41.0731 419.156 41.1404 419.499 41.2262V48.1715C419.131 48.0613 418.623 47.9633 417.974 47.8775C417.324 47.7918 416.73 47.7489 416.191 47.7489C415.04 47.7489 414.011 48 413.105 48.5023C412.21 48.9922 411.5 49.6782 410.973 50.5601C410.459 51.4421 410.202 52.4588 410.202 53.6102V69.5771H402.374Z" fill="white"/>
<path d="M431.152 31.9474L438.741 44.7724H439.035L446.66 31.9474H455.645L444.161 50.7623L455.902 69.5771H446.752L439.035 56.7338H438.741L431.024 69.5771H421.91L433.688 50.7623L422.131 31.9474H431.152Z" fill="#17B3D5"/>
</svg>
