<svg width="1001" height="1000" viewBox="0 0 1001 1000" fill="none" xmlns="http://www.w3.org/2000/svg">
<rect x="0.5" y="9.85449" width="1000" height="980.291" rx="179.139" fill="white"/>
<path d="M331.298 189.005C322.105 188.803 313.077 191.468 305.47 196.633C297.862 201.799 292.054 209.21 288.851 217.83C285.648 226.45 285.211 235.852 287.6 244.731C289.988 253.611 295.084 261.522 302.179 267.372L572.888 499.285L302.179 731.116C297.271 734.723 293.161 739.302 290.106 744.572C287.051 749.841 285.116 755.686 284.424 761.737C283.732 767.789 284.296 773.916 286.082 779.739C287.869 785.563 290.838 790.956 294.804 795.578C298.77 800.201 303.648 803.95 309.133 806.6C314.617 809.25 320.589 810.738 326.676 810.973C332.762 811.208 338.831 810.187 344.503 807.968C350.175 805.748 355.328 802.382 359.639 798.079L669.576 532.896C674.443 528.743 678.352 523.587 681.032 517.777C683.712 511.967 685.1 505.643 685.1 499.244C685.1 492.845 683.712 486.521 681.032 480.711C678.352 474.901 674.443 469.74 669.576 465.587L359.639 200.149C351.809 193.195 341.767 189.251 331.298 189.005Z" fill="black"/>
<path d="M669.701 189.005C678.894 188.803 687.922 191.468 695.529 196.633C703.137 201.799 708.945 209.21 712.148 217.83C715.351 226.45 715.788 235.852 713.399 244.731C711.011 253.611 705.915 261.522 698.82 267.372L428.111 499.285L698.82 731.116C703.728 734.723 707.838 739.302 710.893 744.572C713.948 749.841 715.883 755.686 716.575 761.737C717.267 767.789 716.703 773.916 714.917 779.739C713.131 785.563 710.161 790.956 706.195 795.578C702.229 800.201 697.351 803.95 691.866 806.6C686.382 809.25 680.41 810.738 674.323 810.973C668.237 811.208 662.168 810.187 656.496 807.968C650.824 805.748 645.671 802.382 641.36 798.079L331.423 532.896C326.556 528.743 322.647 523.587 319.967 517.777C317.287 511.967 315.899 505.643 315.899 499.244C315.899 492.845 317.287 486.521 319.967 480.711C322.647 474.901 326.556 469.74 331.423 465.587L641.36 200.149C649.19 193.195 659.232 189.251 669.701 189.005Z" fill="#17B3D5"/>
</svg>
