<svg width="4701" height="1000" viewBox="0 0 4701 1000" fill="none" xmlns="http://www.w3.org/2000/svg">
<rect x="0.547852" width="1020.1" height="1000" rx="182.741" fill="white"/>
<path d="M337.997 182.752C328.619 182.546 319.409 185.264 311.649 190.534C303.889 195.804 297.963 203.364 294.696 212.157C291.429 220.95 290.983 230.541 293.42 239.599C295.857 248.657 301.055 256.728 308.292 262.695L584.444 499.27L308.292 735.762C303.286 739.442 299.093 744.114 295.976 749.489C292.86 754.864 290.887 760.826 290.18 766.999C289.474 773.173 290.05 779.424 291.872 785.364C293.694 791.304 296.723 796.806 300.769 801.521C304.815 806.236 309.791 810.061 315.386 812.764C320.98 815.468 327.073 816.986 333.282 817.225C339.49 817.465 345.682 816.423 351.468 814.159C357.254 811.895 362.51 808.461 366.908 804.072L683.076 533.558C688.041 529.321 692.028 524.061 694.762 518.134C697.496 512.207 698.912 505.756 698.912 499.229C698.912 492.702 697.496 486.25 694.762 480.323C692.028 474.396 688.041 469.132 683.076 464.895L366.908 194.12C358.921 187.026 348.676 183.003 337.997 182.752Z" fill="black"/>
<path d="M683.203 182.752C692.581 182.546 701.79 185.264 709.55 190.534C717.311 195.804 723.236 203.364 726.503 212.157C729.77 220.95 730.217 230.541 727.78 239.599C725.343 248.657 720.145 256.728 712.907 262.695L436.755 499.27L712.907 735.762C717.914 739.442 722.107 744.114 725.223 749.489C728.34 754.864 730.313 760.826 731.019 766.999C731.725 773.173 731.15 779.424 729.327 785.364C727.505 791.304 724.477 796.806 720.43 801.521C716.384 806.236 711.408 810.061 705.814 812.764C700.219 815.468 694.127 816.986 687.918 817.225C681.709 817.465 675.518 816.423 669.732 814.159C663.946 811.895 658.69 808.461 654.292 804.072L338.123 533.558C333.158 529.321 329.171 524.061 326.437 518.134C323.704 512.207 322.288 505.756 322.288 499.229C322.288 492.702 323.704 486.25 326.437 480.323C329.171 474.396 333.158 469.132 338.123 464.895L654.292 194.12C662.279 187.026 672.523 183.003 683.203 182.752Z" fill="#17B3D5"/>
<path d="M1199.03 377.297V311.702H1508.08V377.297H1392.87V688H1314.23V377.297H1199.03ZM1557.5 688V405.777H1635.77V688H1557.5ZM1596.82 369.396C1585.18 369.396 1575.2 365.538 1566.87 357.821C1558.66 349.981 1554.56 340.61 1554.56 329.709C1554.56 318.929 1558.66 309.681 1566.87 301.964C1575.2 294.124 1585.18 290.205 1596.82 290.205C1608.46 290.205 1618.38 294.124 1626.59 301.964C1634.92 309.681 1639.08 318.929 1639.08 329.709C1639.08 340.61 1634.92 349.981 1626.59 357.821C1618.38 365.538 1608.46 369.396 1596.82 369.396ZM1698.47 688V405.777H1773.07V455.57H1776.38C1782.26 439.033 1792.06 425.988 1805.78 416.433C1819.5 406.879 1835.91 402.102 1855.02 402.102C1874.37 402.102 1890.85 406.94 1904.45 416.617C1918.04 426.172 1927.11 439.156 1931.64 455.57H1934.58C1940.34 439.401 1950.75 426.478 1965.82 416.801C1981 407.002 1998.95 402.102 2019.65 402.102C2045.99 402.102 2067.36 410.493 2083.78 427.274C2100.31 443.933 2108.58 467.574 2108.58 498.197V688H2030.49V513.631C2030.49 497.952 2026.33 486.193 2018 478.354C2009.67 470.514 1999.26 466.594 1986.76 466.594C1972.55 466.594 1961.47 471.126 1953.5 480.191C1945.54 489.133 1941.56 500.953 1941.56 515.653V688H1865.68V511.978C1865.68 498.136 1861.7 487.112 1853.73 478.905C1845.89 470.698 1835.54 466.594 1822.68 466.594C1813.99 466.594 1806.15 468.799 1799.16 473.209C1792.3 477.496 1786.85 483.56 1782.81 491.399C1778.77 499.116 1776.75 508.181 1776.75 518.592V688H1698.47ZM2299.03 693.512C2270 693.512 2245.01 687.633 2224.06 675.873C2203.24 663.991 2187.19 647.21 2175.92 625.529C2164.65 603.725 2159.02 577.94 2159.02 548.174C2159.02 519.144 2164.65 493.665 2175.92 471.739C2187.19 449.813 2203.05 432.725 2223.51 420.476C2244.09 408.226 2268.22 402.102 2295.9 402.102C2314.52 402.102 2331.85 405.103 2347.9 411.105C2364.07 416.985 2378.16 425.865 2390.16 437.747C2402.29 449.629 2411.72 464.573 2418.46 482.58C2425.19 500.464 2428.56 521.41 2428.56 545.418V566.916H2190.25V518.409H2354.88C2354.88 507.139 2352.43 497.156 2347.53 488.459C2342.63 479.762 2335.84 472.964 2327.14 468.064C2318.56 463.042 2308.58 460.531 2297.19 460.531C2285.31 460.531 2274.77 463.287 2265.59 468.799C2256.52 474.189 2249.42 481.477 2244.27 490.664C2239.13 499.729 2236.49 509.834 2236.37 520.981V567.1C2236.37 581.064 2238.94 593.129 2244.09 603.296C2249.36 613.463 2256.77 621.303 2266.32 626.815C2275.88 632.327 2287.21 635.083 2300.31 635.083C2309.01 635.083 2316.97 633.858 2324.2 631.408C2331.43 628.958 2337.61 625.284 2342.76 620.384C2347.9 615.484 2351.82 609.482 2354.52 602.378L2426.91 607.155C2423.23 624.549 2415.7 639.738 2404.31 652.722C2393.04 665.584 2378.46 675.628 2360.58 682.855C2342.82 689.96 2322.3 693.512 2299.03 693.512ZM2550.57 606.787L2550.75 512.897H2562.14L2652.54 405.777H2742.39L2620.94 547.623H2602.38L2550.57 606.787ZM2479.64 688V311.702H2557.92V688H2479.64ZM2656.03 688L2572.98 565.078L2625.16 509.773L2747.72 688H2656.03ZM2897.79 693.512C2868.76 693.512 2843.77 687.633 2822.82 675.873C2802 663.991 2785.95 647.21 2774.68 625.529C2763.41 603.725 2757.78 577.94 2757.78 548.174C2757.78 519.144 2763.41 493.665 2774.68 471.739C2785.95 449.813 2801.81 432.725 2822.27 420.476C2842.85 408.226 2866.98 402.102 2894.66 402.102C2913.28 402.102 2930.61 405.103 2946.66 411.105C2962.83 416.985 2976.92 425.865 2988.92 437.747C3001.05 449.629 3010.48 464.573 3017.22 482.58C3023.95 500.464 3027.32 521.41 3027.32 545.418V566.916H2789.01V518.409H2953.64C2953.64 507.139 2951.19 497.156 2946.29 488.459C2941.39 479.762 2934.6 472.964 2925.9 468.064C2917.32 463.042 2907.34 460.531 2895.95 460.531C2884.07 460.531 2873.53 463.287 2864.35 468.799C2855.28 474.189 2848.18 481.477 2843.03 490.664C2837.89 499.729 2835.25 509.834 2835.13 520.981V567.1C2835.13 581.064 2837.7 593.129 2842.85 603.296C2848.12 613.463 2855.53 621.303 2865.08 626.815C2874.64 632.327 2885.97 635.083 2899.07 635.083C2907.77 635.083 2915.73 633.858 2922.96 631.408C2930.19 628.958 2936.37 625.284 2941.52 620.384C2946.66 615.484 2950.58 609.482 2953.28 602.378L3025.67 607.155C3021.99 624.549 3014.46 639.738 3003.07 652.722C2991.8 665.584 2977.22 675.628 2959.34 682.855C2941.58 689.96 2921.06 693.512 2897.79 693.512ZM3207.02 693.512C3177.99 693.512 3153 687.633 3132.05 675.873C3111.23 663.991 3095.18 647.21 3083.91 625.529C3072.65 603.725 3067.01 577.94 3067.01 548.174C3067.01 519.144 3072.65 493.665 3083.91 471.739C3095.18 449.813 3111.05 432.725 3131.5 420.476C3152.08 408.226 3176.21 402.102 3203.9 402.102C3222.52 402.102 3239.85 405.103 3255.89 411.105C3272.06 416.985 3286.15 425.865 3298.15 437.747C3310.28 449.629 3319.71 464.573 3326.45 482.58C3333.19 500.464 3336.56 521.41 3336.56 545.418V566.916H3098.25V518.409H3262.88C3262.88 507.139 3260.43 497.156 3255.53 488.459C3250.63 479.762 3243.83 472.964 3235.13 468.064C3226.56 463.042 3216.57 460.531 3205.18 460.531C3193.3 460.531 3182.77 463.287 3173.58 468.799C3164.51 474.189 3157.41 481.477 3152.27 490.664C3147.12 499.729 3144.49 509.834 3144.36 520.981V567.1C3144.36 581.064 3146.94 593.129 3152.08 603.296C3157.35 613.463 3164.76 621.303 3174.31 626.815C3183.87 632.327 3195.2 635.083 3208.31 635.083C3217 635.083 3224.96 633.858 3232.19 631.408C3239.42 628.958 3245.6 625.284 3250.75 620.384C3255.89 615.484 3259.81 609.482 3262.51 602.378L3334.9 607.155C3331.23 624.549 3323.69 639.738 3312.3 652.722C3301.03 665.584 3286.46 675.628 3268.57 682.855C3250.81 689.96 3230.29 693.512 3207.02 693.512ZM3387.64 793.834V405.777H3464.81V453.181H3468.3C3471.73 445.587 3476.69 437.87 3483.18 430.03C3489.79 422.068 3498.37 415.454 3508.9 410.186C3519.56 404.797 3532.79 402.102 3548.59 402.102C3569.17 402.102 3588.16 407.491 3605.55 418.271C3622.94 428.928 3636.85 445.036 3647.26 466.594C3657.67 488.03 3662.88 514.918 3662.88 547.256C3662.88 578.736 3657.79 605.317 3647.63 626.999C3637.58 648.557 3623.86 664.91 3606.47 676.057C3589.2 687.081 3569.84 692.593 3548.41 692.593C3533.22 692.593 3520.3 690.082 3509.64 685.06C3499.1 680.038 3490.47 673.73 3483.73 666.135C3476.99 658.418 3471.85 650.64 3468.3 642.8H3465.91V793.834H3387.64ZM3464.25 546.888C3464.25 563.67 3466.58 578.308 3471.24 590.802C3475.89 603.296 3482.63 613.034 3491.45 620.016C3500.27 626.876 3510.99 630.306 3523.6 630.306C3536.34 630.306 3547.12 626.815 3555.94 619.833C3564.76 612.728 3571.44 602.929 3575.97 590.434C3580.62 577.818 3582.95 563.302 3582.95 546.888C3582.95 530.597 3580.68 516.265 3576.15 503.893C3571.62 491.522 3564.94 481.845 3556.12 474.863C3547.3 467.88 3536.46 464.389 3523.6 464.389C3510.86 464.389 3500.08 467.758 3491.26 474.495C3482.57 481.232 3475.89 490.787 3471.24 503.158C3466.58 515.53 3464.25 530.107 3464.25 546.888ZM3843.68 693.512C3814.65 693.512 3789.66 687.633 3768.71 675.873C3747.89 663.991 3731.84 647.21 3720.57 625.529C3709.3 603.725 3703.67 577.94 3703.67 548.174C3703.67 519.144 3709.3 493.665 3720.57 471.739C3731.84 449.813 3747.7 432.725 3768.16 420.476C3788.74 408.226 3812.87 402.102 3840.55 402.102C3859.17 402.102 3876.5 405.103 3892.55 411.105C3908.72 416.985 3922.81 425.865 3934.81 437.747C3946.94 449.629 3956.37 464.573 3963.11 482.58C3969.84 500.464 3973.21 521.41 3973.21 545.418V566.916H3734.9V518.409H3899.53C3899.53 507.139 3897.08 497.156 3892.18 488.459C3887.28 479.762 3880.49 472.964 3871.79 468.064C3863.21 463.042 3853.23 460.531 3841.84 460.531C3829.96 460.531 3819.42 463.287 3810.24 468.799C3801.17 474.189 3794.07 481.477 3788.92 490.664C3783.78 499.729 3781.14 509.834 3781.02 520.981V567.1C3781.02 581.064 3783.59 593.129 3788.74 603.296C3794.01 613.463 3801.42 621.303 3810.97 626.815C3820.52 632.327 3831.86 635.083 3844.96 635.083C3853.66 635.083 3861.62 633.858 3868.85 631.408C3876.08 628.958 3882.26 625.284 3887.41 620.384C3892.55 615.484 3896.47 609.482 3899.17 602.378L3971.56 607.155C3967.88 624.549 3960.35 639.738 3948.96 652.722C3937.69 665.584 3923.11 675.628 3905.23 682.855C3887.47 689.96 3866.95 693.512 3843.68 693.512ZM4024.29 688V405.777H4100.18V455.019H4103.12C4108.26 437.502 4116.9 424.273 4129.02 415.331C4141.15 406.267 4155.11 401.734 4170.92 401.734C4174.84 401.734 4179.06 401.979 4183.59 402.469C4188.13 402.959 4192.11 403.633 4195.54 404.49V473.944C4191.86 472.841 4186.78 471.861 4180.29 471.004C4173.79 470.147 4167.85 469.718 4162.46 469.718C4150.95 469.718 4140.66 472.229 4131.6 477.251C4122.65 482.151 4115.55 489.01 4110.28 497.83C4105.14 506.649 4102.56 516.816 4102.56 528.331V688H4024.29Z" fill="white"/>
<path d="M4312.07 311.702L4387.96 439.952H4390.9L4467.15 311.702H4557L4442.16 499.851L4559.57 688H4468.07L4390.9 559.566H4387.96L4310.79 688H4219.65L4337.43 499.851L4221.86 311.702H4312.07Z" fill="#17B3D5"/>
</svg>
