<svg width="2351" height="500" viewBox="0 0 2351 500" fill="none" xmlns="http://www.w3.org/2000/svg">
<rect x="0.547852" width="510.052" height="500" rx="91.3706" fill="white"/>
<path d="M169.272 91.3756C164.583 91.2724 159.979 92.6317 156.098 95.2665C152.218 97.9013 149.256 101.681 147.622 106.078C145.989 110.474 145.765 115.27 146.984 119.799C148.202 124.328 150.801 128.363 154.42 131.347L292.496 249.635L154.42 367.881C151.917 369.721 149.82 372.056 148.262 374.744C146.704 377.432 145.717 380.413 145.364 383.499C145.011 386.586 145.299 389.711 146.21 392.681C147.121 395.651 148.635 398.402 150.658 400.76C152.681 403.118 155.17 405.03 157.967 406.382C160.764 407.733 163.81 408.492 166.915 408.612C170.019 408.732 173.115 408.211 176.008 407.079C178.901 405.947 181.529 404.23 183.728 402.035L341.812 266.778C344.295 264.66 346.288 262.03 347.655 259.067C349.022 256.103 349.73 252.878 349.73 249.614C349.73 246.35 349.022 243.125 347.655 240.161C346.288 237.198 344.295 234.565 341.812 232.447L183.728 97.0598C179.734 93.5127 174.612 91.5012 169.272 91.3756Z" fill="black"/>
<path d="M341.875 91.3756C346.564 91.2724 351.169 92.6317 355.049 95.2665C358.929 97.9013 361.892 101.681 363.525 106.078C365.159 110.474 365.382 115.27 364.164 119.799C362.945 124.328 360.346 128.363 356.727 131.347L218.651 249.635L356.727 367.881C359.231 369.721 361.327 372.056 362.885 374.744C364.444 377.432 365.43 380.413 365.783 383.499C366.137 386.586 365.849 389.711 364.938 392.681C364.027 395.651 362.512 398.402 360.489 400.76C358.466 403.118 355.978 405.03 353.181 406.382C350.383 407.733 347.337 408.492 344.233 408.612C341.129 408.732 338.033 408.211 335.14 407.079C332.247 405.947 329.619 404.23 327.42 402.035L169.335 266.778C166.853 264.66 164.859 262.03 163.493 259.067C162.126 256.103 161.418 252.878 161.418 249.614C161.418 246.35 162.126 243.125 163.493 240.161C164.859 237.198 166.853 234.565 169.335 232.447L327.42 97.0598C331.413 93.5127 336.535 91.5012 341.875 91.3756Z" fill="#17B3D5"/>
<path d="M599.787 188.648V155.851H754.312V188.648H696.709V344H657.389V188.648H599.787ZM779.025 344V202.888H818.161V344H779.025ZM798.685 184.698C792.866 184.698 787.875 182.769 783.71 178.91C779.606 174.991 777.555 170.305 777.555 164.854C777.555 159.465 779.606 154.84 783.71 150.982C787.875 147.062 792.866 145.102 798.685 145.102C804.503 145.102 809.464 147.062 813.568 150.982C817.732 154.84 819.815 159.465 819.815 164.854C819.815 170.305 817.732 174.991 813.568 178.91C809.464 182.769 804.503 184.698 798.685 184.698ZM849.512 344V202.888H886.811V227.785H888.464C891.404 219.517 896.304 212.994 903.163 208.217C910.023 203.44 918.23 201.051 927.785 201.051C937.461 201.051 945.699 203.47 952.497 208.309C959.296 213.086 963.828 219.578 966.094 227.785H967.564C970.443 219.7 975.649 213.239 983.182 208.4C990.776 203.501 999.749 201.051 1010.1 201.051C1023.27 201.051 1033.96 205.246 1042.16 213.637C1050.43 221.967 1054.56 233.787 1054.56 249.099V344H1015.52V256.816C1015.52 248.976 1013.44 243.097 1009.27 239.177C1005.11 235.257 999.902 233.297 993.655 233.297C986.55 233.297 981.008 235.563 977.027 240.095C973.046 244.566 971.055 250.477 971.055 257.826V344H933.113V255.989C933.113 249.068 931.122 243.556 927.141 239.452C923.222 235.349 918.046 233.297 911.615 233.297C907.267 233.297 903.347 234.4 899.856 236.604C896.426 238.748 893.701 241.78 891.68 245.7C889.659 249.558 888.648 254.09 888.648 259.296V344H849.512ZM1149.79 346.756C1135.27 346.756 1122.78 343.816 1112.3 337.937C1101.89 331.996 1093.87 323.605 1088.23 312.764C1082.6 301.862 1079.78 288.97 1079.78 274.087C1079.78 259.572 1082.6 246.833 1088.23 235.869C1093.87 224.906 1101.8 216.362 1112.03 210.238C1122.32 204.113 1134.38 201.051 1148.23 201.051C1157.54 201.051 1166.2 202.551 1174.22 205.553C1182.31 208.492 1189.35 212.933 1195.35 218.874C1201.42 224.815 1206.13 232.287 1209.5 241.29C1212.87 250.232 1214.56 260.705 1214.56 272.709V283.458H1095.4V259.204H1177.72C1177.72 253.57 1176.49 248.578 1174.04 244.23C1171.59 239.881 1168.19 236.482 1163.84 234.032C1159.56 231.521 1154.56 230.265 1148.87 230.265C1142.93 230.265 1137.66 231.643 1133.07 234.4C1128.53 237.094 1124.98 240.739 1122.41 245.332C1119.84 249.864 1118.52 254.917 1118.46 260.491V283.55C1118.46 290.532 1119.75 296.565 1122.32 301.648C1124.95 306.732 1128.66 310.651 1133.43 313.407C1138.21 316.164 1143.88 317.542 1150.43 317.542C1154.78 317.542 1158.76 316.929 1162.37 315.704C1165.99 314.479 1169.08 312.642 1171.65 310.192C1174.22 307.742 1176.18 304.741 1177.53 301.189L1213.73 303.577C1211.89 312.274 1208.12 319.869 1202.43 326.361C1196.79 332.792 1189.51 337.814 1180.56 341.428C1171.68 344.98 1161.42 346.756 1149.79 346.756ZM1275.56 303.394L1275.65 256.448H1281.34L1326.54 202.888H1371.47L1310.74 273.812H1301.46L1275.56 303.394ZM1240.1 344V155.851H1279.23V344H1240.1ZM1328.29 344L1286.77 282.539L1312.86 254.886L1374.13 344H1328.29ZM1449.17 346.756C1434.65 346.756 1422.16 343.816 1411.68 337.937C1401.27 331.996 1393.25 323.605 1387.61 312.764C1381.98 301.862 1379.16 288.97 1379.16 274.087C1379.16 259.572 1381.98 246.833 1387.61 235.869C1393.25 224.906 1401.18 216.362 1411.41 210.238C1421.7 204.113 1433.76 201.051 1447.61 201.051C1456.92 201.051 1465.58 202.551 1473.6 205.553C1481.69 208.492 1488.73 212.933 1494.73 218.874C1500.8 224.815 1505.51 232.287 1508.88 241.29C1512.25 250.232 1513.94 260.705 1513.94 272.709V283.458H1394.78V259.204H1477.1C1477.1 253.57 1475.87 248.578 1473.42 244.23C1470.97 239.881 1467.57 236.482 1463.22 234.032C1458.94 231.521 1453.94 230.265 1448.25 230.265C1442.31 230.265 1437.04 231.643 1432.45 234.4C1427.91 237.094 1424.36 240.739 1421.79 245.332C1419.22 249.864 1417.9 254.917 1417.84 260.491V283.55C1417.84 290.532 1419.13 296.565 1421.7 301.648C1424.33 306.732 1428.04 310.651 1432.81 313.407C1437.59 316.164 1443.26 317.542 1449.81 317.542C1454.16 317.542 1458.14 316.929 1461.75 315.704C1465.37 314.479 1468.46 312.642 1471.03 310.192C1473.6 307.742 1475.56 304.741 1476.91 301.189L1513.11 303.577C1511.27 312.274 1507.5 319.869 1501.81 326.361C1496.17 332.792 1488.89 337.814 1479.94 341.428C1471.06 344.98 1460.8 346.756 1449.17 346.756ZM1603.78 346.756C1589.27 346.756 1576.77 343.816 1566.3 337.937C1555.89 331.996 1547.87 323.605 1542.23 312.764C1536.6 301.862 1533.78 288.97 1533.78 274.087C1533.78 259.572 1536.6 246.833 1542.23 235.869C1547.87 224.906 1555.8 216.362 1566.03 210.238C1576.32 204.113 1588.38 201.051 1602.22 201.051C1611.53 201.051 1620.2 202.551 1628.22 205.553C1636.31 208.492 1643.35 212.933 1649.35 218.874C1655.41 224.815 1660.13 232.287 1663.5 241.29C1666.87 250.232 1668.55 260.705 1668.55 272.709V283.458H1549.4V259.204H1631.71C1631.71 253.57 1630.49 248.578 1628.04 244.23C1625.59 239.881 1622.19 236.482 1617.84 234.032C1613.55 231.521 1608.56 230.265 1602.87 230.265C1596.92 230.265 1591.66 231.643 1587.06 234.4C1582.53 237.094 1578.98 240.739 1576.41 245.332C1573.83 249.864 1572.52 254.917 1572.46 260.491V283.55C1572.46 290.532 1573.74 296.565 1576.32 301.648C1578.95 306.732 1582.65 310.651 1587.43 313.407C1592.21 316.164 1597.87 317.542 1604.43 317.542C1608.78 317.542 1612.76 316.929 1616.37 315.704C1619.98 314.479 1623.08 312.642 1625.65 310.192C1628.22 307.742 1630.18 304.741 1631.53 301.189L1667.73 303.577C1665.89 312.274 1662.12 319.869 1656.43 326.361C1650.79 332.792 1643.5 337.814 1634.56 341.428C1625.68 344.98 1615.42 346.756 1603.78 346.756ZM1694.09 396.917V202.888H1732.68V226.591H1734.42C1736.14 222.793 1738.62 218.935 1741.86 215.015C1745.17 211.034 1749.46 207.727 1754.73 205.093C1760.05 202.398 1766.67 201.051 1774.57 201.051C1784.86 201.051 1794.35 203.746 1803.05 209.135C1811.75 214.464 1818.7 222.518 1823.9 233.297C1829.11 244.015 1831.71 257.459 1831.71 273.628C1831.71 289.368 1829.17 302.659 1824.09 313.499C1819.07 324.279 1812.21 332.455 1803.51 338.028C1794.87 343.541 1785.2 346.297 1774.48 346.297C1766.88 346.297 1760.42 345.041 1755.09 342.53C1749.83 340.019 1745.51 336.865 1742.14 333.068C1738.77 329.209 1736.2 325.32 1734.42 321.4H1733.23V396.917H1694.09ZM1732.4 273.444C1732.4 281.835 1733.57 289.154 1735.89 295.401C1738.22 301.648 1741.59 306.517 1746 310.008C1750.41 313.438 1755.77 315.153 1762.08 315.153C1768.44 315.153 1773.83 313.407 1778.24 309.916C1782.65 306.364 1785.99 301.464 1788.26 295.217C1790.59 288.909 1791.75 281.651 1791.75 273.444C1791.75 265.298 1790.62 258.133 1788.35 251.947C1786.08 245.761 1782.75 240.922 1778.34 237.431C1773.93 233.94 1768.51 232.195 1762.08 232.195C1755.71 232.195 1750.32 233.879 1745.91 237.248C1741.56 240.616 1738.22 245.393 1735.89 251.579C1733.57 257.765 1732.4 265.053 1732.4 273.444ZM1922.11 346.756C1907.6 346.756 1895.1 343.816 1884.63 337.937C1874.22 331.996 1866.19 323.605 1860.56 312.764C1854.92 301.862 1852.11 288.97 1852.11 274.087C1852.11 259.572 1854.92 246.833 1860.56 235.869C1866.19 224.906 1874.13 216.362 1884.35 210.238C1894.64 204.113 1906.71 201.051 1920.55 201.051C1929.86 201.051 1938.53 202.551 1946.55 205.553C1954.63 208.492 1961.68 212.933 1967.68 218.874C1973.74 224.815 1978.46 232.287 1981.83 241.29C1985.2 250.232 1986.88 260.705 1986.88 272.709V283.458H1867.73V259.204H1950.04C1950.04 253.57 1948.82 248.578 1946.37 244.23C1943.92 239.881 1940.52 236.482 1936.17 234.032C1931.88 231.521 1926.89 230.265 1921.19 230.265C1915.25 230.265 1909.99 231.643 1905.39 234.4C1900.86 237.094 1897.31 240.739 1894.74 245.332C1892.16 249.864 1890.85 254.917 1890.78 260.491V283.55C1890.78 290.532 1892.07 296.565 1894.64 301.648C1897.28 306.732 1900.98 310.651 1905.76 313.407C1910.54 316.164 1916.2 317.542 1922.76 317.542C1927.1 317.542 1931.08 316.929 1934.7 315.704C1938.31 314.479 1941.4 312.642 1943.98 310.192C1946.55 307.742 1948.51 304.741 1949.86 301.189L1986.05 303.577C1984.22 312.274 1980.45 319.869 1974.75 326.361C1969.12 332.792 1961.83 337.814 1952.89 341.428C1944.01 344.98 1933.75 346.756 1922.11 346.756ZM2012.42 344V202.888H2050.36V227.509H2051.83C2054.4 218.751 2058.72 212.136 2064.79 207.666C2070.85 203.133 2077.83 200.867 2085.73 200.867C2087.69 200.867 2089.8 200.99 2092.07 201.235C2094.34 201.48 2096.33 201.816 2098.04 202.245V236.972C2096.21 236.421 2093.66 235.931 2090.42 235.502C2087.17 235.073 2084.2 234.859 2081.51 234.859C2075.75 234.859 2070.6 236.114 2066.07 238.626C2061.6 241.075 2058.05 244.505 2055.42 248.915C2052.84 253.325 2051.56 258.408 2051.56 264.165V344H2012.42Z" fill="white"/>
<path d="M2156.31 155.851L2194.25 219.976H2195.72L2233.85 155.851H2278.77L2221.35 249.926L2280.06 344H2234.31L2195.72 279.783H2194.25L2155.67 344H2110.1L2168.99 249.926L2111.2 155.851H2156.31Z" fill="#17B3D5"/>
</svg>
