<svg width="100" height="101" viewBox="0 0 100 101" fill="none" xmlns="http://www.w3.org/2000/svg">
<rect y="1.37695" width="100" height="98.0292" rx="17.914" fill="white"/>
<path d="M33.0798 19.2921C32.1605 19.2719 31.2577 19.5384 30.497 20.0549C29.7363 20.5715 29.1554 21.3126 28.8351 22.1746C28.5149 23.0366 28.4711 23.9768 28.71 24.8648C28.9489 25.7527 29.4585 26.5439 30.168 27.1288L57.2389 50.3201L30.168 73.5032C29.6772 73.8639 29.2661 74.3219 28.9606 74.8488C28.6551 75.3757 28.4617 75.9602 28.3924 76.5654C28.3232 77.1705 28.3797 77.7833 28.5583 78.3656C28.7369 78.9479 29.0338 79.4872 29.4305 79.9495C29.8271 80.4117 30.3149 80.7867 30.8633 81.0517C31.4117 81.3166 32.009 81.4655 32.6176 81.489C33.2262 81.5124 33.8332 81.4104 34.4004 81.1884C34.9676 80.9665 35.4829 80.6298 35.9139 80.1995L66.9077 53.6813C67.3944 53.2659 67.7853 52.7504 68.0533 52.1693C68.3213 51.5883 68.46 50.9559 68.46 50.316C68.46 49.6762 68.3213 49.0438 68.0533 48.4627C67.7853 47.8817 67.3944 47.3656 66.9077 46.9503L35.9139 20.4065C35.131 19.7111 34.1267 19.3167 33.0798 19.2921Z" fill="black"/>
<path d="M66.9202 19.2921C67.8395 19.2719 68.7423 19.5384 69.503 20.0549C70.2637 20.5715 70.8446 21.3126 71.1649 22.1746C71.4851 23.0366 71.5289 23.9768 71.29 24.8648C71.0511 25.7527 70.5415 26.5439 69.832 27.1288L42.7611 50.3201L69.832 73.5032C70.3228 73.8639 70.7339 74.3219 71.0394 74.8488C71.3449 75.3757 71.5383 75.9602 71.6076 76.5654C71.6768 77.1705 71.6203 77.7833 71.4417 78.3656C71.2631 78.9479 70.9662 79.4872 70.5695 79.9495C70.1729 80.4117 69.6851 80.7867 69.1367 81.0517C68.5883 81.3166 67.991 81.4655 67.3824 81.489C66.7738 81.5124 66.1668 81.4104 65.5996 81.1884C65.0324 80.9665 64.5171 80.6298 64.0861 80.1995L33.0923 53.6813C32.6056 53.2659 32.2147 52.7504 31.9467 52.1693C31.6787 51.5883 31.54 50.9559 31.54 50.316C31.54 49.6762 31.6787 49.0438 31.9467 48.4627C32.2147 47.8817 32.6056 47.3656 33.0923 46.9503L64.0861 20.4065C64.869 19.7111 65.8733 19.3167 66.9202 19.2921Z" fill="#17B3D5"/>
</svg>
